<?xml version="1.0" encoding="utf-8" standalone="no"?>
<!DOCTYPE svg PUBLIC "-//W3C//DTD SVG 1.1//EN"
  "http://www.w3.org/Graphics/SVG/1.1/DTD/svg11.dtd">
<svg xmlns:xlink="http://www.w3.org/1999/xlink" width="504pt" height="432pt" viewBox="0 0 504 432" xmlns="http://www.w3.org/2000/svg" version="1.1">
 <metadata>
  <rdf:RDF xmlns:dc="http://purl.org/dc/elements/1.1/" xmlns:cc="http://creativecommons.org/ns#" xmlns:rdf="http://www.w3.org/1999/02/22-rdf-syntax-ns#">
   <cc:Work>
    <dc:type rdf:resource="http://purl.org/dc/dcmitype/StillImage"/>
    <dc:date>2025-03-15T14:10:02.635230</dc:date>
    <dc:format>image/svg+xml</dc:format>
    <dc:creator>
     <cc:Agent>
      <dc:title>Matplotlib v3.8.4, https://matplotlib.org/</dc:title>
     </cc:Agent>
    </dc:creator>
   </cc:Work>
  </rdf:RDF>
 </metadata>
 <defs>
  <style type="text/css">*{stroke-linejoin: round; stroke-linecap: butt}</style>
 </defs>
 <g id="figure_1">
  <g id="patch_1">
   <path d="M 0 432 
L 504 432 
L 504 0 
L 0 0 
z
" style="fill: #ffffff"/>
  </g>
  <g id="axes_1">
   <g id="patch_2">
    <path d="M 80.93 386.44 
L 493.2 386.44 
L 493.2 25.44 
L 80.93 25.44 
z
" style="fill: #eaeaf2"/>
   </g>
   <g id="matplotlib.axis_1">
    <g id="xtick_1">
     <g id="text_1">
      <!-- mlrunner -->
      <g style="fill: #262626" transform="translate(117.507292 404.077812) scale(0.14 -0.14)">
       <defs>
        <path id="DejaVuSans-6d" d="M 3328 2828 
Q 3544 3216 3844 3400 
Q 4144 3584 4550 3584 
Q 5097 3584 5394 3201 
Q 5691 2819 5691 2113 
L 5691 0 
L 5113 0 
L 5113 2094 
Q 5113 2597 4934 2840 
Q 4756 3084 4391 3084 
Q 3944 3084 3684 2787 
Q 3425 2491 3425 1978 
L 3425 0 
L 2847 0 
L 2847 2094 
Q 2847 2600 2669 2842 
Q 2491 3084 2119 3084 
Q 1678 3084 1418 2786 
Q 1159 2488 1159 1978 
L 1159 0 
L 581 0 
L 581 3500 
L 1159 3500 
L 1159 2956 
Q 1356 3278 1631 3431 
Q 1906 3584 2284 3584 
Q 2666 3584 2933 3390 
Q 3200 3197 3328 2828 
z
" transform="scale(0.015625)"/>
        <path id="DejaVuSans-6c" d="M 603 4863 
L 1178 4863 
L 1178 0 
L 603 0 
L 603 4863 
z
" transform="scale(0.015625)"/>
        <path id="DejaVuSans-72" d="M 2631 2963 
Q 2534 3019 2420 3045 
Q 2306 3072 2169 3072 
Q 1681 3072 1420 2755 
Q 1159 2438 1159 1844 
L 1159 0 
L 581 0 
L 581 3500 
L 1159 3500 
L 1159 2956 
Q 1341 3275 1631 3429 
Q 1922 3584 2338 3584 
Q 2397 3584 2469 3576 
Q 2541 3569 2628 3553 
L 2631 2963 
z
" transform="scale(0.015625)"/>
        <path id="DejaVuSans-75" d="M 544 1381 
L 544 3500 
L 1119 3500 
L 1119 1403 
Q 1119 906 1312 657 
Q 1506 409 1894 409 
Q 2359 409 2629 706 
Q 2900 1003 2900 1516 
L 2900 3500 
L 3475 3500 
L 3475 0 
L 2900 0 
L 2900 538 
Q 2691 219 2414 64 
Q 2138 -91 1772 -91 
Q 1169 -91 856 284 
Q 544 659 544 1381 
z
M 1991 3584 
L 1991 3584 
z
" transform="scale(0.015625)"/>
        <path id="DejaVuSans-6e" d="M 3513 2113 
L 3513 0 
L 2938 0 
L 2938 2094 
Q 2938 2591 2744 2837 
Q 2550 3084 2163 3084 
Q 1697 3084 1428 2787 
Q 1159 2491 1159 1978 
L 1159 0 
L 581 0 
L 581 3500 
L 1159 3500 
L 1159 2956 
Q 1366 3272 1645 3428 
Q 1925 3584 2291 3584 
Q 2894 3584 3203 3211 
Q 3513 2838 3513 2113 
z
" transform="scale(0.015625)"/>
        <path id="DejaVuSans-65" d="M 3597 1894 
L 3597 1613 
L 953 1613 
Q 991 1019 1311 708 
Q 1631 397 2203 397 
Q 2534 397 2845 478 
Q 3156 559 3463 722 
L 3463 178 
Q 3153 47 2828 -22 
Q 2503 -91 2169 -91 
Q 1331 -91 842 396 
Q 353 884 353 1716 
Q 353 2575 817 3079 
Q 1281 3584 2069 3584 
Q 2775 3584 3186 3129 
Q 3597 2675 3597 1894 
z
M 3022 2063 
Q 3016 2534 2758 2815 
Q 2500 3097 2075 3097 
Q 1594 3097 1305 2825 
Q 1016 2553 972 2059 
L 3022 2063 
z
" transform="scale(0.015625)"/>
       </defs>
       <use xlink:href="#DejaVuSans-6d"/>
       <use xlink:href="#DejaVuSans-6c" x="97.412109"/>
       <use xlink:href="#DejaVuSans-72" x="125.195312"/>
       <use xlink:href="#DejaVuSans-75" x="166.308594"/>
       <use xlink:href="#DejaVuSans-6e" x="229.6875"/>
       <use xlink:href="#DejaVuSans-6e" x="293.066406"/>
       <use xlink:href="#DejaVuSans-65" x="356.445312"/>
       <use xlink:href="#DejaVuSans-72" x="417.96875"/>
      </g>
     </g>
    </g>
    <g id="xtick_2">
     <g id="text_2">
      <!-- createsim -->
      <g style="fill: #262626" transform="translate(252.437969 404.077812) scale(0.14 -0.14)">
       <defs>
        <path id="DejaVuSans-63" d="M 3122 3366 
L 3122 2828 
Q 2878 2963 2633 3030 
Q 2388 3097 2138 3097 
Q 1578 3097 1268 2742 
Q 959 2388 959 1747 
Q 959 1106 1268 751 
Q 1578 397 2138 397 
Q 2388 397 2633 464 
Q 2878 531 3122 666 
L 3122 134 
Q 2881 22 2623 -34 
Q 2366 -91 2075 -91 
Q 1284 -91 818 406 
Q 353 903 353 1747 
Q 353 2603 823 3093 
Q 1294 3584 2113 3584 
Q 2378 3584 2631 3529 
Q 2884 3475 3122 3366 
z
" transform="scale(0.015625)"/>
        <path id="DejaVuSans-61" d="M 2194 1759 
Q 1497 1759 1228 1600 
Q 959 1441 959 1056 
Q 959 750 1161 570 
Q 1363 391 1709 391 
Q 2188 391 2477 730 
Q 2766 1069 2766 1631 
L 2766 1759 
L 2194 1759 
z
M 3341 1997 
L 3341 0 
L 2766 0 
L 2766 531 
Q 2569 213 2275 61 
Q 1981 -91 1556 -91 
Q 1019 -91 701 211 
Q 384 513 384 1019 
Q 384 1609 779 1909 
Q 1175 2209 1959 2209 
L 2766 2209 
L 2766 2266 
Q 2766 2663 2505 2880 
Q 2244 3097 1772 3097 
Q 1472 3097 1187 3025 
Q 903 2953 641 2809 
L 641 3341 
Q 956 3463 1253 3523 
Q 1550 3584 1831 3584 
Q 2591 3584 2966 3190 
Q 3341 2797 3341 1997 
z
" transform="scale(0.015625)"/>
        <path id="DejaVuSans-74" d="M 1172 4494 
L 1172 3500 
L 2356 3500 
L 2356 3053 
L 1172 3053 
L 1172 1153 
Q 1172 725 1289 603 
Q 1406 481 1766 481 
L 2356 481 
L 2356 0 
L 1766 0 
Q 1100 0 847 248 
Q 594 497 594 1153 
L 594 3053 
L 172 3053 
L 172 3500 
L 594 3500 
L 594 4494 
L 1172 4494 
z
" transform="scale(0.015625)"/>
        <path id="DejaVuSans-73" d="M 2834 3397 
L 2834 2853 
Q 2591 2978 2328 3040 
Q 2066 3103 1784 3103 
Q 1356 3103 1142 2972 
Q 928 2841 928 2578 
Q 928 2378 1081 2264 
Q 1234 2150 1697 2047 
L 1894 2003 
Q 2506 1872 2764 1633 
Q 3022 1394 3022 966 
Q 3022 478 2636 193 
Q 2250 -91 1575 -91 
Q 1294 -91 989 -36 
Q 684 19 347 128 
L 347 722 
Q 666 556 975 473 
Q 1284 391 1588 391 
Q 1994 391 2212 530 
Q 2431 669 2431 922 
Q 2431 1156 2273 1281 
Q 2116 1406 1581 1522 
L 1381 1569 
Q 847 1681 609 1914 
Q 372 2147 372 2553 
Q 372 3047 722 3315 
Q 1072 3584 1716 3584 
Q 2034 3584 2315 3537 
Q 2597 3491 2834 3397 
z
" transform="scale(0.015625)"/>
        <path id="DejaVuSans-69" d="M 603 3500 
L 1178 3500 
L 1178 0 
L 603 0 
L 603 3500 
z
M 603 4863 
L 1178 4863 
L 1178 4134 
L 603 4134 
L 603 4863 
z
" transform="scale(0.015625)"/>
       </defs>
       <use xlink:href="#DejaVuSans-63"/>
       <use xlink:href="#DejaVuSans-72" x="54.980469"/>
       <use xlink:href="#DejaVuSans-65" x="93.84375"/>
       <use xlink:href="#DejaVuSans-61" x="155.367188"/>
       <use xlink:href="#DejaVuSans-74" x="216.646484"/>
       <use xlink:href="#DejaVuSans-65" x="255.855469"/>
       <use xlink:href="#DejaVuSans-73" x="317.378906"/>
       <use xlink:href="#DejaVuSans-69" x="369.478516"/>
       <use xlink:href="#DejaVuSans-6d" x="397.261719"/>
      </g>
     </g>
    </g>
    <g id="xtick_3">
     <g id="text_3">
      <!-- cganalysis -->
      <g style="fill: #262626" transform="translate(387.854271 404.077812) scale(0.14 -0.14)">
       <defs>
        <path id="DejaVuSans-67" d="M 2906 1791 
Q 2906 2416 2648 2759 
Q 2391 3103 1925 3103 
Q 1463 3103 1205 2759 
Q 947 2416 947 1791 
Q 947 1169 1205 825 
Q 1463 481 1925 481 
Q 2391 481 2648 825 
Q 2906 1169 2906 1791 
z
M 3481 434 
Q 3481 -459 3084 -895 
Q 2688 -1331 1869 -1331 
Q 1566 -1331 1297 -1286 
Q 1028 -1241 775 -1147 
L 775 -588 
Q 1028 -725 1275 -790 
Q 1522 -856 1778 -856 
Q 2344 -856 2625 -561 
Q 2906 -266 2906 331 
L 2906 616 
Q 2728 306 2450 153 
Q 2172 0 1784 0 
Q 1141 0 747 490 
Q 353 981 353 1791 
Q 353 2603 747 3093 
Q 1141 3584 1784 3584 
Q 2172 3584 2450 3431 
Q 2728 3278 2906 2969 
L 2906 3500 
L 3481 3500 
L 3481 434 
z
" transform="scale(0.015625)"/>
        <path id="DejaVuSans-79" d="M 2059 -325 
Q 1816 -950 1584 -1140 
Q 1353 -1331 966 -1331 
L 506 -1331 
L 506 -850 
L 844 -850 
Q 1081 -850 1212 -737 
Q 1344 -625 1503 -206 
L 1606 56 
L 191 3500 
L 800 3500 
L 1894 763 
L 2988 3500 
L 3597 3500 
L 2059 -325 
z
" transform="scale(0.015625)"/>
       </defs>
       <use xlink:href="#DejaVuSans-63"/>
       <use xlink:href="#DejaVuSans-67" x="54.980469"/>
       <use xlink:href="#DejaVuSans-61" x="118.457031"/>
       <use xlink:href="#DejaVuSans-6e" x="179.736328"/>
       <use xlink:href="#DejaVuSans-61" x="243.115234"/>
       <use xlink:href="#DejaVuSans-6c" x="304.394531"/>
       <use xlink:href="#DejaVuSans-79" x="332.177734"/>
       <use xlink:href="#DejaVuSans-73" x="391.357422"/>
       <use xlink:href="#DejaVuSans-69" x="443.457031"/>
       <use xlink:href="#DejaVuSans-73" x="471.240234"/>
      </g>
     </g>
    </g>
    <g id="text_4">
     <!-- Job -->
     <g style="fill: #262626" transform="translate(279.356406 418.587812) scale(0.1 -0.1)">
      <defs>
       <path id="DejaVuSans-4a" d="M 628 4666 
L 1259 4666 
L 1259 325 
Q 1259 -519 939 -900 
Q 619 -1281 -91 -1281 
L -331 -1281 
L -331 -750 
L -134 -750 
Q 284 -750 456 -515 
Q 628 -281 628 325 
L 628 4666 
z
" transform="scale(0.015625)"/>
       <path id="DejaVuSans-6f" d="M 1959 3097 
Q 1497 3097 1228 2736 
Q 959 2375 959 1747 
Q 959 1119 1226 758 
Q 1494 397 1959 397 
Q 2419 397 2687 759 
Q 2956 1122 2956 1747 
Q 2956 2369 2687 2733 
Q 2419 3097 1959 3097 
z
M 1959 3584 
Q 2709 3584 3137 3096 
Q 3566 2609 3566 1747 
Q 3566 888 3137 398 
Q 2709 -91 1959 -91 
Q 1206 -91 779 398 
Q 353 888 353 1747 
Q 353 2609 779 3096 
Q 1206 3584 1959 3584 
z
" transform="scale(0.015625)"/>
       <path id="DejaVuSans-62" d="M 3116 1747 
Q 3116 2381 2855 2742 
Q 2594 3103 2138 3103 
Q 1681 3103 1420 2742 
Q 1159 2381 1159 1747 
Q 1159 1113 1420 752 
Q 1681 391 2138 391 
Q 2594 391 2855 752 
Q 3116 1113 3116 1747 
z
M 1159 2969 
Q 1341 3281 1617 3432 
Q 1894 3584 2278 3584 
Q 2916 3584 3314 3078 
Q 3713 2572 3713 1747 
Q 3713 922 3314 415 
Q 2916 -91 2278 -91 
Q 1894 -91 1617 61 
Q 1341 213 1159 525 
L 1159 0 
L 581 0 
L 581 4863 
L 1159 4863 
L 1159 2969 
z
" transform="scale(0.015625)"/>
      </defs>
      <use xlink:href="#DejaVuSans-4a"/>
      <use xlink:href="#DejaVuSans-6f" x="29.492188"/>
      <use xlink:href="#DejaVuSans-62" x="90.673828"/>
     </g>
    </g>
   </g>
   <g id="matplotlib.axis_2">
    <g id="ytick_1">
     <g id="text_5">
      <!-- 0.0 -->
      <g style="fill: #262626" transform="translate(51.665625 382.151511) scale(0.14 -0.14)">
       <defs>
        <path id="DejaVuSans-30" d="M 2034 4250 
Q 1547 4250 1301 3770 
Q 1056 3291 1056 2328 
Q 1056 1369 1301 889 
Q 1547 409 2034 409 
Q 2525 409 2770 889 
Q 3016 1369 3016 2328 
Q 3016 3291 2770 3770 
Q 2525 4250 2034 4250 
z
M 2034 4750 
Q 2819 4750 3233 4129 
Q 3647 3509 3647 2328 
Q 3647 1150 3233 529 
Q 2819 -91 2034 -91 
Q 1250 -91 836 529 
Q 422 1150 422 2328 
Q 422 3509 836 4129 
Q 1250 4750 2034 4750 
z
" transform="scale(0.015625)"/>
        <path id="DejaVuSans-2e" d="M 684 794 
L 1344 794 
L 1344 0 
L 684 0 
L 684 794 
z
" transform="scale(0.015625)"/>
       </defs>
       <use xlink:href="#DejaVuSans-30"/>
       <use xlink:href="#DejaVuSans-2e" x="63.623047"/>
       <use xlink:href="#DejaVuSans-30" x="95.410156"/>
      </g>
     </g>
    </g>
    <g id="ytick_2">
     <g id="text_6">
      <!-- 250.0 -->
      <g style="fill: #262626" transform="translate(33.850625 339.640913) scale(0.14 -0.14)">
       <defs>
        <path id="DejaVuSans-32" d="M 1228 531 
L 3431 531 
L 3431 0 
L 469 0 
L 469 531 
Q 828 903 1448 1529 
Q 2069 2156 2228 2338 
Q 2531 2678 2651 2914 
Q 2772 3150 2772 3378 
Q 2772 3750 2511 3984 
Q 2250 4219 1831 4219 
Q 1534 4219 1204 4116 
Q 875 4013 500 3803 
L 500 4441 
Q 881 4594 1212 4672 
Q 1544 4750 1819 4750 
Q 2544 4750 2975 4387 
Q 3406 4025 3406 3419 
Q 3406 3131 3298 2873 
Q 3191 2616 2906 2266 
Q 2828 2175 2409 1742 
Q 1991 1309 1228 531 
z
" transform="scale(0.015625)"/>
        <path id="DejaVuSans-35" d="M 691 4666 
L 3169 4666 
L 3169 4134 
L 1269 4134 
L 1269 2991 
Q 1406 3038 1543 3061 
Q 1681 3084 1819 3084 
Q 2600 3084 3056 2656 
Q 3513 2228 3513 1497 
Q 3513 744 3044 326 
Q 2575 -91 1722 -91 
Q 1428 -91 1123 -41 
Q 819 9 494 109 
L 494 744 
Q 775 591 1075 516 
Q 1375 441 1709 441 
Q 2250 441 2565 725 
Q 2881 1009 2881 1497 
Q 2881 1984 2565 2268 
Q 2250 2553 1709 2553 
Q 1456 2553 1204 2497 
Q 953 2441 691 2322 
L 691 4666 
z
" transform="scale(0.015625)"/>
       </defs>
       <use xlink:href="#DejaVuSans-32"/>
       <use xlink:href="#DejaVuSans-35" x="63.623047"/>
       <use xlink:href="#DejaVuSans-30" x="127.246094"/>
       <use xlink:href="#DejaVuSans-2e" x="190.869141"/>
       <use xlink:href="#DejaVuSans-30" x="222.65625"/>
      </g>
     </g>
    </g>
    <g id="ytick_3">
     <g id="text_7">
      <!-- 500.0 -->
      <g style="fill: #262626" transform="translate(33.850625 297.130315) scale(0.14 -0.14)">
       <use xlink:href="#DejaVuSans-35"/>
       <use xlink:href="#DejaVuSans-30" x="63.623047"/>
       <use xlink:href="#DejaVuSans-30" x="127.246094"/>
       <use xlink:href="#DejaVuSans-2e" x="190.869141"/>
       <use xlink:href="#DejaVuSans-30" x="222.65625"/>
      </g>
     </g>
    </g>
    <g id="ytick_4">
     <g id="text_8">
      <!-- 750.0 -->
      <g style="fill: #262626" transform="translate(33.850625 254.619716) scale(0.14 -0.14)">
       <defs>
        <path id="DejaVuSans-37" d="M 525 4666 
L 3525 4666 
L 3525 4397 
L 1831 0 
L 1172 0 
L 2766 4134 
L 525 4134 
L 525 4666 
z
" transform="scale(0.015625)"/>
       </defs>
       <use xlink:href="#DejaVuSans-37"/>
       <use xlink:href="#DejaVuSans-35" x="63.623047"/>
       <use xlink:href="#DejaVuSans-30" x="127.246094"/>
       <use xlink:href="#DejaVuSans-2e" x="190.869141"/>
       <use xlink:href="#DejaVuSans-30" x="222.65625"/>
      </g>
     </g>
    </g>
    <g id="ytick_5">
     <g id="text_9">
      <!-- 1000.0 -->
      <g style="fill: #262626" transform="translate(24.943125 212.109118) scale(0.14 -0.14)">
       <defs>
        <path id="DejaVuSans-31" d="M 794 531 
L 1825 531 
L 1825 4091 
L 703 3866 
L 703 4441 
L 1819 4666 
L 2450 4666 
L 2450 531 
L 3481 531 
L 3481 0 
L 794 0 
L 794 531 
z
" transform="scale(0.015625)"/>
       </defs>
       <use xlink:href="#DejaVuSans-31"/>
       <use xlink:href="#DejaVuSans-30" x="63.623047"/>
       <use xlink:href="#DejaVuSans-30" x="127.246094"/>
       <use xlink:href="#DejaVuSans-30" x="190.869141"/>
       <use xlink:href="#DejaVuSans-2e" x="254.492188"/>
       <use xlink:href="#DejaVuSans-30" x="286.279297"/>
      </g>
     </g>
    </g>
    <g id="ytick_6">
     <g id="text_10">
      <!-- 1250.0 -->
      <g style="fill: #262626" transform="translate(24.943125 169.59852) scale(0.14 -0.14)">
       <use xlink:href="#DejaVuSans-31"/>
       <use xlink:href="#DejaVuSans-32" x="63.623047"/>
       <use xlink:href="#DejaVuSans-35" x="127.246094"/>
       <use xlink:href="#DejaVuSans-30" x="190.869141"/>
       <use xlink:href="#DejaVuSans-2e" x="254.492188"/>
       <use xlink:href="#DejaVuSans-30" x="286.279297"/>
      </g>
     </g>
    </g>
    <g id="ytick_7">
     <g id="text_11">
      <!-- 1500.0 -->
      <g style="fill: #262626" transform="translate(24.943125 127.087922) scale(0.14 -0.14)">
       <use xlink:href="#DejaVuSans-31"/>
       <use xlink:href="#DejaVuSans-35" x="63.623047"/>
       <use xlink:href="#DejaVuSans-30" x="127.246094"/>
       <use xlink:href="#DejaVuSans-30" x="190.869141"/>
       <use xlink:href="#DejaVuSans-2e" x="254.492188"/>
       <use xlink:href="#DejaVuSans-30" x="286.279297"/>
      </g>
     </g>
    </g>
    <g id="ytick_8">
     <g id="text_12">
      <!-- 1750.0 -->
      <g style="fill: #262626" transform="translate(24.943125 84.577324) scale(0.14 -0.14)">
       <use xlink:href="#DejaVuSans-31"/>
       <use xlink:href="#DejaVuSans-37" x="63.623047"/>
       <use xlink:href="#DejaVuSans-35" x="127.246094"/>
       <use xlink:href="#DejaVuSans-30" x="190.869141"/>
       <use xlink:href="#DejaVuSans-2e" x="254.492188"/>
       <use xlink:href="#DejaVuSans-30" x="286.279297"/>
      </g>
     </g>
    </g>
    <g id="ytick_9">
     <g id="text_13">
      <!-- 2000.0 -->
      <g style="fill: #262626" transform="translate(24.943125 42.066725) scale(0.14 -0.14)">
       <use xlink:href="#DejaVuSans-32"/>
       <use xlink:href="#DejaVuSans-30" x="63.623047"/>
       <use xlink:href="#DejaVuSans-30" x="127.246094"/>
       <use xlink:href="#DejaVuSans-30" x="190.869141"/>
       <use xlink:href="#DejaVuSans-2e" x="254.492188"/>
       <use xlink:href="#DejaVuSans-30" x="286.279297"/>
      </g>
     </g>
    </g>
    <g id="text_14">
     <!-- Running Time (seconds) -->
     <g style="fill: #262626" transform="translate(18.863437 266.178281) rotate(-90) scale(0.1 -0.1)">
      <defs>
       <path id="DejaVuSans-52" d="M 2841 2188 
Q 3044 2119 3236 1894 
Q 3428 1669 3622 1275 
L 4263 0 
L 3584 0 
L 2988 1197 
Q 2756 1666 2539 1819 
Q 2322 1972 1947 1972 
L 1259 1972 
L 1259 0 
L 628 0 
L 628 4666 
L 2053 4666 
Q 2853 4666 3247 4331 
Q 3641 3997 3641 3322 
Q 3641 2881 3436 2590 
Q 3231 2300 2841 2188 
z
M 1259 4147 
L 1259 2491 
L 2053 2491 
Q 2509 2491 2742 2702 
Q 2975 2913 2975 3322 
Q 2975 3731 2742 3939 
Q 2509 4147 2053 4147 
L 1259 4147 
z
" transform="scale(0.015625)"/>
       <path id="DejaVuSans-20" transform="scale(0.015625)"/>
       <path id="DejaVuSans-54" d="M -19 4666 
L 3928 4666 
L 3928 4134 
L 2272 4134 
L 2272 0 
L 1638 0 
L 1638 4134 
L -19 4134 
L -19 4666 
z
" transform="scale(0.015625)"/>
       <path id="DejaVuSans-28" d="M 1984 4856 
Q 1566 4138 1362 3434 
Q 1159 2731 1159 2009 
Q 1159 1288 1364 580 
Q 1569 -128 1984 -844 
L 1484 -844 
Q 1016 -109 783 600 
Q 550 1309 550 2009 
Q 550 2706 781 3412 
Q 1013 4119 1484 4856 
L 1984 4856 
z
" transform="scale(0.015625)"/>
       <path id="DejaVuSans-64" d="M 2906 2969 
L 2906 4863 
L 3481 4863 
L 3481 0 
L 2906 0 
L 2906 525 
Q 2725 213 2448 61 
Q 2172 -91 1784 -91 
Q 1150 -91 751 415 
Q 353 922 353 1747 
Q 353 2572 751 3078 
Q 1150 3584 1784 3584 
Q 2172 3584 2448 3432 
Q 2725 3281 2906 2969 
z
M 947 1747 
Q 947 1113 1208 752 
Q 1469 391 1925 391 
Q 2381 391 2643 752 
Q 2906 1113 2906 1747 
Q 2906 2381 2643 2742 
Q 2381 3103 1925 3103 
Q 1469 3103 1208 2742 
Q 947 2381 947 1747 
z
" transform="scale(0.015625)"/>
       <path id="DejaVuSans-29" d="M 513 4856 
L 1013 4856 
Q 1481 4119 1714 3412 
Q 1947 2706 1947 2009 
Q 1947 1309 1714 600 
Q 1481 -109 1013 -844 
L 513 -844 
Q 928 -128 1133 580 
Q 1338 1288 1338 2009 
Q 1338 2731 1133 3434 
Q 928 4138 513 4856 
z
" transform="scale(0.015625)"/>
      </defs>
      <use xlink:href="#DejaVuSans-52"/>
      <use xlink:href="#DejaVuSans-75" x="64.982422"/>
      <use xlink:href="#DejaVuSans-6e" x="128.361328"/>
      <use xlink:href="#DejaVuSans-6e" x="191.740234"/>
      <use xlink:href="#DejaVuSans-69" x="255.119141"/>
      <use xlink:href="#DejaVuSans-6e" x="282.902344"/>
      <use xlink:href="#DejaVuSans-67" x="346.28125"/>
      <use xlink:href="#DejaVuSans-20" x="409.757812"/>
      <use xlink:href="#DejaVuSans-54" x="441.544922"/>
      <use xlink:href="#DejaVuSans-69" x="499.503906"/>
      <use xlink:href="#DejaVuSans-6d" x="527.287109"/>
      <use xlink:href="#DejaVuSans-65" x="624.699219"/>
      <use xlink:href="#DejaVuSans-20" x="686.222656"/>
      <use xlink:href="#DejaVuSans-28" x="718.009766"/>
      <use xlink:href="#DejaVuSans-73" x="757.023438"/>
      <use xlink:href="#DejaVuSans-65" x="809.123047"/>
      <use xlink:href="#DejaVuSans-63" x="870.646484"/>
      <use xlink:href="#DejaVuSans-6f" x="925.626953"/>
      <use xlink:href="#DejaVuSans-6e" x="986.808594"/>
      <use xlink:href="#DejaVuSans-64" x="1050.1875"/>
      <use xlink:href="#DejaVuSans-73" x="1113.664062"/>
      <use xlink:href="#DejaVuSans-29" x="1165.763672"/>
     </g>
    </g>
   </g>
   <g id="patch_3">
    <path d="M 149.641667 376.832605 
L 149.641667 376.832605 
L 149.641667 376.832605 
L 149.641667 376.832605 
z
" clip-path="url(#p88a9b84c3d)" style="fill: #3274a1; stroke: #3d3d3d; stroke-width: 1.8; stroke-linejoin: miter"/>
   </g>
   <g id="patch_4">
    <path d="M 149.641667 376.832605 
L 149.641667 376.832605 
L 149.641667 376.832605 
L 149.641667 376.832605 
z
" clip-path="url(#p88a9b84c3d)" style="fill: #e1812c; stroke: #3d3d3d; stroke-width: 1.8; stroke-linejoin: miter"/>
   </g>
   <g id="patch_5">
    <path d="M 149.641667 376.832605 
L 149.641667 376.832605 
L 149.641667 376.832605 
L 149.641667 376.832605 
z
" clip-path="url(#p88a9b84c3d)" style="fill: #3a923a; stroke: #3d3d3d; stroke-width: 1.8; stroke-linejoin: miter"/>
   </g>
   <g id="patch_6">
    <path d="M 94.672333 367.140188 
L 131.318556 367.140188 
L 131.318556 318.678106 
L 94.672333 318.678106 
L 94.672333 367.140188 
z
" clip-path="url(#p88a9b84c3d)" style="fill: #3274a1; stroke: #3d3d3d; stroke-width: 1.8; stroke-linejoin: miter"/>
   </g>
   <g id="line2d_1">
    <path d="M 112.995444 367.140188 
L 112.995444 368.330485 
" clip-path="url(#p88a9b84c3d)" style="fill: none; stroke: #3d3d3d; stroke-width: 1.8"/>
   </g>
   <g id="line2d_2">
    <path d="M 112.995444 318.678106 
L 112.995444 317.827894 
" clip-path="url(#p88a9b84c3d)" style="fill: none; stroke: #3d3d3d; stroke-width: 1.8"/>
   </g>
   <g id="line2d_3">
    <path d="M 103.833889 368.330485 
L 122.157 368.330485 
" clip-path="url(#p88a9b84c3d)" style="fill: none; stroke: #3d3d3d; stroke-width: 1.8; stroke-linecap: round"/>
   </g>
   <g id="line2d_4">
    <path d="M 103.833889 317.827894 
L 122.157 317.827894 
" clip-path="url(#p88a9b84c3d)" style="fill: none; stroke: #3d3d3d; stroke-width: 1.8; stroke-linecap: round"/>
   </g>
   <g id="line2d_5">
    <defs>
     <path id="mae377615f6" d="M 0 3 
C 0.795609 3 1.55874 2.683901 2.12132 2.12132 
C 2.683901 1.55874 3 0.795609 3 0 
C 3 -0.795609 2.683901 -1.55874 2.12132 -2.12132 
C 1.55874 -2.683901 0.795609 -3 0 -3 
C -0.795609 -3 -1.55874 -2.683901 -2.12132 -2.12132 
C -2.683901 -1.55874 -3 -0.795609 -3 0 
C -3 0.795609 -2.683901 1.55874 -2.12132 2.12132 
C -1.55874 2.683901 -0.795609 3 0 3 
z
" style="stroke: #3d3d3d"/>
    </defs>
    <g clip-path="url(#p88a9b84c3d)">
     <use xlink:href="#mae377615f6" x="112.995444" y="370.030909" style="fill-opacity: 0; stroke: #3d3d3d"/>
     <use xlink:href="#mae377615f6" x="112.995444" y="369.180697" style="fill-opacity: 0; stroke: #3d3d3d"/>
     <use xlink:href="#mae377615f6" x="112.995444" y="317.317767" style="fill-opacity: 0; stroke: #3d3d3d"/>
     <use xlink:href="#mae377615f6" x="112.995444" y="316.80764" style="fill-opacity: 0; stroke: #3d3d3d"/>
    </g>
   </g>
   <g id="patch_7">
    <path d="M 232.095667 295.042214 
L 268.741889 295.042214 
L 268.741889 285.859925 
L 232.095667 285.859925 
L 232.095667 295.042214 
z
" clip-path="url(#p88a9b84c3d)" style="fill: #3274a1; stroke: #3d3d3d; stroke-width: 1.8; stroke-linejoin: miter"/>
   </g>
   <g id="line2d_6">
    <path d="M 250.418778 295.042214 
L 250.418778 295.892426 
" clip-path="url(#p88a9b84c3d)" style="fill: none; stroke: #3d3d3d; stroke-width: 1.8"/>
   </g>
   <g id="line2d_7">
    <path d="M 250.418778 285.859925 
L 250.418778 282.799162 
" clip-path="url(#p88a9b84c3d)" style="fill: none; stroke: #3d3d3d; stroke-width: 1.8"/>
   </g>
   <g id="line2d_8">
    <path d="M 241.257222 295.892426 
L 259.580333 295.892426 
" clip-path="url(#p88a9b84c3d)" style="fill: none; stroke: #3d3d3d; stroke-width: 1.8; stroke-linecap: round"/>
   </g>
   <g id="line2d_9">
    <path d="M 241.257222 282.799162 
L 259.580333 282.799162 
" clip-path="url(#p88a9b84c3d)" style="fill: none; stroke: #3d3d3d; stroke-width: 1.8; stroke-linecap: round"/>
   </g>
   <g id="line2d_10">
    <g clip-path="url(#p88a9b84c3d)">
     <use xlink:href="#mae377615f6" x="250.418778" y="297.59285" style="fill-opacity: 0; stroke: #3d3d3d"/>
     <use xlink:href="#mae377615f6" x="250.418778" y="296.232511" style="fill-opacity: 0; stroke: #3d3d3d"/>
     <use xlink:href="#mae377615f6" x="250.418778" y="282.629119" style="fill-opacity: 0; stroke: #3d3d3d"/>
     <use xlink:href="#mae377615f6" x="250.418778" y="281.26878" style="fill-opacity: 0; stroke: #3d3d3d"/>
    </g>
   </g>
   <g id="patch_8">
    <path d="M 369.519 72.796806 
L 406.165222 72.796806 
L 406.165222 72.626764 
L 369.519 72.626764 
L 369.519 72.796806 
z
" clip-path="url(#p88a9b84c3d)" style="fill: #3274a1; stroke: #3d3d3d; stroke-width: 1.8; stroke-linejoin: miter"/>
   </g>
   <g id="line2d_11">
    <path d="M 387.842111 72.796806 
L 387.842111 72.796806 
" clip-path="url(#p88a9b84c3d)" style="fill: none; stroke: #3d3d3d; stroke-width: 1.8"/>
   </g>
   <g id="line2d_12">
    <path d="M 387.842111 72.626764 
L 387.842111 72.456722 
" clip-path="url(#p88a9b84c3d)" style="fill: none; stroke: #3d3d3d; stroke-width: 1.8"/>
   </g>
   <g id="line2d_13">
    <path d="M 378.680556 72.796806 
L 397.003667 72.796806 
" clip-path="url(#p88a9b84c3d)" style="fill: none; stroke: #3d3d3d; stroke-width: 1.8; stroke-linecap: round"/>
   </g>
   <g id="line2d_14">
    <path d="M 378.680556 72.456722 
L 397.003667 72.456722 
" clip-path="url(#p88a9b84c3d)" style="fill: none; stroke: #3d3d3d; stroke-width: 1.8; stroke-linecap: round"/>
   </g>
   <g id="line2d_15">
    <g clip-path="url(#p88a9b84c3d)">
     <use xlink:href="#mae377615f6" x="387.842111" y="72.966849" style="fill-opacity: 0; stroke: #3d3d3d"/>
     <use xlink:href="#mae377615f6" x="387.842111" y="72.966849" style="fill-opacity: 0; stroke: #3d3d3d"/>
    </g>
   </g>
   <g id="patch_9">
    <path d="M 131.318556 367.820358 
L 167.964778 367.820358 
L 167.964778 321.228742 
L 131.318556 321.228742 
L 131.318556 367.820358 
z
" clip-path="url(#p88a9b84c3d)" style="fill: #e1812c; stroke: #3d3d3d; stroke-width: 1.8; stroke-linejoin: miter"/>
   </g>
   <g id="line2d_16">
    <path d="M 149.641667 367.820358 
L 149.641667 370.030909 
" clip-path="url(#p88a9b84c3d)" style="fill: none; stroke: #3d3d3d; stroke-width: 1.8"/>
   </g>
   <g id="line2d_17">
    <path d="M 149.641667 321.228742 
L 149.641667 317.317767 
" clip-path="url(#p88a9b84c3d)" style="fill: none; stroke: #3d3d3d; stroke-width: 1.8"/>
   </g>
   <g id="line2d_18">
    <path d="M 140.480111 370.030909 
L 158.803222 370.030909 
" clip-path="url(#p88a9b84c3d)" style="fill: none; stroke: #3d3d3d; stroke-width: 1.8; stroke-linecap: round"/>
   </g>
   <g id="line2d_19">
    <path d="M 140.480111 317.317767 
L 158.803222 317.317767 
" clip-path="url(#p88a9b84c3d)" style="fill: none; stroke: #3d3d3d; stroke-width: 1.8; stroke-linecap: round"/>
   </g>
   <g id="line2d_20">
    <g clip-path="url(#p88a9b84c3d)">
     <use xlink:href="#mae377615f6" x="149.641667" y="316.977683" style="fill-opacity: 0; stroke: #3d3d3d"/>
     <use xlink:href="#mae377615f6" x="149.641667" y="316.127471" style="fill-opacity: 0; stroke: #3d3d3d"/>
    </g>
   </g>
   <g id="patch_10">
    <path d="M 268.741889 294.957193 
L 305.388111 294.957193 
L 305.388111 286.625115 
L 268.741889 286.625115 
L 268.741889 294.957193 
z
" clip-path="url(#p88a9b84c3d)" style="fill: #e1812c; stroke: #3d3d3d; stroke-width: 1.8; stroke-linejoin: miter"/>
   </g>
   <g id="line2d_21">
    <path d="M 287.065 294.957193 
L 287.065 295.892426 
" clip-path="url(#p88a9b84c3d)" style="fill: none; stroke: #3d3d3d; stroke-width: 1.8"/>
   </g>
   <g id="line2d_22">
    <path d="M 287.065 286.625115 
L 287.065 283.309289 
" clip-path="url(#p88a9b84c3d)" style="fill: none; stroke: #3d3d3d; stroke-width: 1.8"/>
   </g>
   <g id="line2d_23">
    <path d="M 277.903444 295.892426 
L 296.226556 295.892426 
" clip-path="url(#p88a9b84c3d)" style="fill: none; stroke: #3d3d3d; stroke-width: 1.8; stroke-linecap: round"/>
   </g>
   <g id="line2d_24">
    <path d="M 277.903444 283.309289 
L 296.226556 283.309289 
" clip-path="url(#p88a9b84c3d)" style="fill: none; stroke: #3d3d3d; stroke-width: 1.8; stroke-linecap: round"/>
   </g>
   <g id="line2d_25">
    <g clip-path="url(#p88a9b84c3d)">
     <use xlink:href="#mae377615f6" x="287.065" y="296.232511" style="fill-opacity: 0; stroke: #3d3d3d"/>
     <use xlink:href="#mae377615f6" x="287.065" y="282.969204" style="fill-opacity: 0; stroke: #3d3d3d"/>
    </g>
   </g>
   <g id="patch_11">
    <path d="M 406.165222 72.796806 
L 442.811444 72.796806 
L 442.811444 72.626764 
L 406.165222 72.626764 
L 406.165222 72.796806 
z
" clip-path="url(#p88a9b84c3d)" style="fill: #e1812c; stroke: #3d3d3d; stroke-width: 1.8; stroke-linejoin: miter"/>
   </g>
   <g id="line2d_26">
    <path d="M 424.488333 72.796806 
L 424.488333 72.966849 
" clip-path="url(#p88a9b84c3d)" style="fill: none; stroke: #3d3d3d; stroke-width: 1.8"/>
   </g>
   <g id="line2d_27">
    <path d="M 424.488333 72.626764 
L 424.488333 72.456722 
" clip-path="url(#p88a9b84c3d)" style="fill: none; stroke: #3d3d3d; stroke-width: 1.8"/>
   </g>
   <g id="line2d_28">
    <path d="M 415.326778 72.966849 
L 433.649889 72.966849 
" clip-path="url(#p88a9b84c3d)" style="fill: none; stroke: #3d3d3d; stroke-width: 1.8; stroke-linecap: round"/>
   </g>
   <g id="line2d_29">
    <path d="M 415.326778 72.456722 
L 433.649889 72.456722 
" clip-path="url(#p88a9b84c3d)" style="fill: none; stroke: #3d3d3d; stroke-width: 1.8; stroke-linecap: round"/>
   </g>
   <g id="line2d_30"/>
   <g id="patch_12">
    <path d="M 167.964778 368.67057 
L 204.611 368.67057 
L 204.611 305.074715 
L 167.964778 305.074715 
L 167.964778 368.67057 
z
" clip-path="url(#p88a9b84c3d)" style="fill: #3a923a; stroke: #3d3d3d; stroke-width: 1.8; stroke-linejoin: miter"/>
   </g>
   <g id="line2d_31">
    <path d="M 186.287889 368.67057 
L 186.287889 368.840612 
" clip-path="url(#p88a9b84c3d)" style="fill: none; stroke: #3d3d3d; stroke-width: 1.8"/>
   </g>
   <g id="line2d_32">
    <path d="M 186.287889 305.074715 
L 186.287889 303.714376 
" clip-path="url(#p88a9b84c3d)" style="fill: none; stroke: #3d3d3d; stroke-width: 1.8"/>
   </g>
   <g id="line2d_33">
    <path d="M 177.126333 368.840612 
L 195.449444 368.840612 
" clip-path="url(#p88a9b84c3d)" style="fill: none; stroke: #3d3d3d; stroke-width: 1.8; stroke-linecap: round"/>
   </g>
   <g id="line2d_34">
    <path d="M 177.126333 303.714376 
L 195.449444 303.714376 
" clip-path="url(#p88a9b84c3d)" style="fill: none; stroke: #3d3d3d; stroke-width: 1.8; stroke-linecap: round"/>
   </g>
   <g id="line2d_35">
    <g clip-path="url(#p88a9b84c3d)">
     <use xlink:href="#mae377615f6" x="186.287889" y="369.010655" style="fill-opacity: 0; stroke: #3d3d3d"/>
     <use xlink:href="#mae377615f6" x="186.287889" y="369.520782" style="fill-opacity: 0; stroke: #3d3d3d"/>
     <use xlink:href="#mae377615f6" x="186.287889" y="303.204249" style="fill-opacity: 0; stroke: #3d3d3d"/>
     <use xlink:href="#mae377615f6" x="186.287889" y="303.034206" style="fill-opacity: 0; stroke: #3d3d3d"/>
    </g>
   </g>
   <g id="patch_13">
    <path d="M 305.388111 240.0335 
L 342.034333 240.0335 
L 342.034333 215.632416 
L 305.388111 215.632416 
L 305.388111 240.0335 
z
" clip-path="url(#p88a9b84c3d)" style="fill: #3a923a; stroke: #3d3d3d; stroke-width: 1.8; stroke-linejoin: miter"/>
   </g>
   <g id="line2d_36">
    <path d="M 323.711222 240.0335 
L 323.711222 241.818945 
" clip-path="url(#p88a9b84c3d)" style="fill: none; stroke: #3d3d3d; stroke-width: 1.8"/>
   </g>
   <g id="line2d_37">
    <path d="M 323.711222 215.632416 
L 323.711222 211.721441 
" clip-path="url(#p88a9b84c3d)" style="fill: none; stroke: #3d3d3d; stroke-width: 1.8"/>
   </g>
   <g id="line2d_38">
    <path d="M 314.549667 241.818945 
L 332.872778 241.818945 
" clip-path="url(#p88a9b84c3d)" style="fill: none; stroke: #3d3d3d; stroke-width: 1.8; stroke-linecap: round"/>
   </g>
   <g id="line2d_39">
    <path d="M 314.549667 211.721441 
L 332.872778 211.721441 
" clip-path="url(#p88a9b84c3d)" style="fill: none; stroke: #3d3d3d; stroke-width: 1.8; stroke-linecap: round"/>
   </g>
   <g id="line2d_40">
    <g clip-path="url(#p88a9b84c3d)">
     <use xlink:href="#mae377615f6" x="323.711222" y="243.009242" style="fill-opacity: 0; stroke: #3d3d3d"/>
     <use xlink:href="#mae377615f6" x="323.711222" y="243.349326" style="fill-opacity: 0; stroke: #3d3d3d"/>
     <use xlink:href="#mae377615f6" x="323.711222" y="209.340848" style="fill-opacity: 0; stroke: #3d3d3d"/>
    </g>
   </g>
   <g id="patch_14">
    <path d="M 442.811444 72.626764 
L 479.457667 72.626764 
L 479.457667 44.569769 
L 442.811444 44.569769 
L 442.811444 72.626764 
z
" clip-path="url(#p88a9b84c3d)" style="fill: #3a923a; stroke: #3d3d3d; stroke-width: 1.8; stroke-linejoin: miter"/>
   </g>
   <g id="line2d_41">
    <path d="M 461.134556 72.626764 
L 461.134556 72.626764 
" clip-path="url(#p88a9b84c3d)" style="fill: none; stroke: #3d3d3d; stroke-width: 1.8"/>
   </g>
   <g id="line2d_42">
    <path d="M 461.134556 44.569769 
L 461.134556 42.359218 
" clip-path="url(#p88a9b84c3d)" style="fill: none; stroke: #3d3d3d; stroke-width: 1.8"/>
   </g>
   <g id="line2d_43">
    <path d="M 451.973 72.626764 
L 470.296111 72.626764 
" clip-path="url(#p88a9b84c3d)" style="fill: none; stroke: #3d3d3d; stroke-width: 1.8; stroke-linecap: round"/>
   </g>
   <g id="line2d_44">
    <path d="M 451.973 42.359218 
L 470.296111 42.359218 
" clip-path="url(#p88a9b84c3d)" style="fill: none; stroke: #3d3d3d; stroke-width: 1.8; stroke-linecap: round"/>
   </g>
   <g id="line2d_45">
    <g clip-path="url(#p88a9b84c3d)">
     <use xlink:href="#mae377615f6" x="461.134556" y="72.796806" style="fill-opacity: 0; stroke: #3d3d3d"/>
     <use xlink:href="#mae377615f6" x="461.134556" y="41.849091" style="fill-opacity: 0; stroke: #3d3d3d"/>
    </g>
   </g>
   <g id="line2d_46">
    <path d="M 94.672333 320.888658 
L 131.318556 320.888658 
" clip-path="url(#p88a9b84c3d)" style="fill: none; stroke: #3d3d3d; stroke-width: 1.8"/>
   </g>
   <g id="line2d_47">
    <path d="M 232.095667 287.985455 
L 268.741889 287.985455 
" clip-path="url(#p88a9b84c3d)" style="fill: none; stroke: #3d3d3d; stroke-width: 1.8"/>
   </g>
   <g id="line2d_48">
    <path d="M 369.519 72.626764 
L 406.165222 72.626764 
" clip-path="url(#p88a9b84c3d)" style="fill: none; stroke: #3d3d3d; stroke-width: 1.8"/>
   </g>
   <g id="line2d_49">
    <path d="M 131.318556 325.649845 
L 167.964778 325.649845 
" clip-path="url(#p88a9b84c3d)" style="fill: none; stroke: #3d3d3d; stroke-width: 1.8"/>
   </g>
   <g id="line2d_50">
    <path d="M 268.741889 289.430815 
L 305.388111 289.430815 
" clip-path="url(#p88a9b84c3d)" style="fill: none; stroke: #3d3d3d; stroke-width: 1.8"/>
   </g>
   <g id="line2d_51">
    <path d="M 406.165222 72.626764 
L 442.811444 72.626764 
" clip-path="url(#p88a9b84c3d)" style="fill: none; stroke: #3d3d3d; stroke-width: 1.8"/>
   </g>
   <g id="line2d_52">
    <path d="M 167.964778 307.115224 
L 204.611 307.115224 
" clip-path="url(#p88a9b84c3d)" style="fill: none; stroke: #3d3d3d; stroke-width: 1.8"/>
   </g>
   <g id="line2d_53">
    <path d="M 305.388111 218.608158 
L 342.034333 218.608158 
" clip-path="url(#p88a9b84c3d)" style="fill: none; stroke: #3d3d3d; stroke-width: 1.8"/>
   </g>
   <g id="line2d_54">
    <path d="M 442.811444 47.120405 
L 479.457667 47.120405 
" clip-path="url(#p88a9b84c3d)" style="fill: none; stroke: #3d3d3d; stroke-width: 1.8"/>
   </g>
   <g id="patch_15">
    <path d="M 80.93 386.44 
L 80.93 25.44 
" style="fill: none; stroke: #ffffff; stroke-width: 0.8; stroke-linejoin: miter; stroke-linecap: square"/>
   </g>
   <g id="patch_16">
    <path d="M 493.2 386.44 
L 493.2 25.44 
" style="fill: none; stroke: #ffffff; stroke-width: 0.8; stroke-linejoin: miter; stroke-linecap: square"/>
   </g>
   <g id="patch_17">
    <path d="M 80.93 386.44 
L 493.2 386.44 
" style="fill: none; stroke: #ffffff; stroke-width: 0.8; stroke-linejoin: miter; stroke-linecap: square"/>
   </g>
   <g id="patch_18">
    <path d="M 80.93 25.44 
L 493.2 25.44 
" style="fill: none; stroke: #ffffff; stroke-width: 0.8; stroke-linejoin: miter; stroke-linecap: square"/>
   </g>
   <g id="text_15">
    <!-- State Machine Operator Job Times By Experiment -->
    <g style="fill: #262626" transform="translate(138.375625 19.44) scale(0.12 -0.12)">
     <defs>
      <path id="DejaVuSans-53" d="M 3425 4513 
L 3425 3897 
Q 3066 4069 2747 4153 
Q 2428 4238 2131 4238 
Q 1616 4238 1336 4038 
Q 1056 3838 1056 3469 
Q 1056 3159 1242 3001 
Q 1428 2844 1947 2747 
L 2328 2669 
Q 3034 2534 3370 2195 
Q 3706 1856 3706 1288 
Q 3706 609 3251 259 
Q 2797 -91 1919 -91 
Q 1588 -91 1214 -16 
Q 841 59 441 206 
L 441 856 
Q 825 641 1194 531 
Q 1563 422 1919 422 
Q 2459 422 2753 634 
Q 3047 847 3047 1241 
Q 3047 1584 2836 1778 
Q 2625 1972 2144 2069 
L 1759 2144 
Q 1053 2284 737 2584 
Q 422 2884 422 3419 
Q 422 4038 858 4394 
Q 1294 4750 2059 4750 
Q 2388 4750 2728 4690 
Q 3069 4631 3425 4513 
z
" transform="scale(0.015625)"/>
      <path id="DejaVuSans-4d" d="M 628 4666 
L 1569 4666 
L 2759 1491 
L 3956 4666 
L 4897 4666 
L 4897 0 
L 4281 0 
L 4281 4097 
L 3078 897 
L 2444 897 
L 1241 4097 
L 1241 0 
L 628 0 
L 628 4666 
z
" transform="scale(0.015625)"/>
      <path id="DejaVuSans-68" d="M 3513 2113 
L 3513 0 
L 2938 0 
L 2938 2094 
Q 2938 2591 2744 2837 
Q 2550 3084 2163 3084 
Q 1697 3084 1428 2787 
Q 1159 2491 1159 1978 
L 1159 0 
L 581 0 
L 581 4863 
L 1159 4863 
L 1159 2956 
Q 1366 3272 1645 3428 
Q 1925 3584 2291 3584 
Q 2894 3584 3203 3211 
Q 3513 2838 3513 2113 
z
" transform="scale(0.015625)"/>
      <path id="DejaVuSans-4f" d="M 2522 4238 
Q 1834 4238 1429 3725 
Q 1025 3213 1025 2328 
Q 1025 1447 1429 934 
Q 1834 422 2522 422 
Q 3209 422 3611 934 
Q 4013 1447 4013 2328 
Q 4013 3213 3611 3725 
Q 3209 4238 2522 4238 
z
M 2522 4750 
Q 3503 4750 4090 4092 
Q 4678 3434 4678 2328 
Q 4678 1225 4090 567 
Q 3503 -91 2522 -91 
Q 1538 -91 948 565 
Q 359 1222 359 2328 
Q 359 3434 948 4092 
Q 1538 4750 2522 4750 
z
" transform="scale(0.015625)"/>
      <path id="DejaVuSans-70" d="M 1159 525 
L 1159 -1331 
L 581 -1331 
L 581 3500 
L 1159 3500 
L 1159 2969 
Q 1341 3281 1617 3432 
Q 1894 3584 2278 3584 
Q 2916 3584 3314 3078 
Q 3713 2572 3713 1747 
Q 3713 922 3314 415 
Q 2916 -91 2278 -91 
Q 1894 -91 1617 61 
Q 1341 213 1159 525 
z
M 3116 1747 
Q 3116 2381 2855 2742 
Q 2594 3103 2138 3103 
Q 1681 3103 1420 2742 
Q 1159 2381 1159 1747 
Q 1159 1113 1420 752 
Q 1681 391 2138 391 
Q 2594 391 2855 752 
Q 3116 1113 3116 1747 
z
" transform="scale(0.015625)"/>
      <path id="DejaVuSans-42" d="M 1259 2228 
L 1259 519 
L 2272 519 
Q 2781 519 3026 730 
Q 3272 941 3272 1375 
Q 3272 1813 3026 2020 
Q 2781 2228 2272 2228 
L 1259 2228 
z
M 1259 4147 
L 1259 2741 
L 2194 2741 
Q 2656 2741 2882 2914 
Q 3109 3088 3109 3444 
Q 3109 3797 2882 3972 
Q 2656 4147 2194 4147 
L 1259 4147 
z
M 628 4666 
L 2241 4666 
Q 2963 4666 3353 4366 
Q 3744 4066 3744 3513 
Q 3744 3084 3544 2831 
Q 3344 2578 2956 2516 
Q 3422 2416 3680 2098 
Q 3938 1781 3938 1306 
Q 3938 681 3513 340 
Q 3088 0 2303 0 
L 628 0 
L 628 4666 
z
" transform="scale(0.015625)"/>
      <path id="DejaVuSans-45" d="M 628 4666 
L 3578 4666 
L 3578 4134 
L 1259 4134 
L 1259 2753 
L 3481 2753 
L 3481 2222 
L 1259 2222 
L 1259 531 
L 3634 531 
L 3634 0 
L 628 0 
L 628 4666 
z
" transform="scale(0.015625)"/>
      <path id="DejaVuSans-78" d="M 3513 3500 
L 2247 1797 
L 3578 0 
L 2900 0 
L 1881 1375 
L 863 0 
L 184 0 
L 1544 1831 
L 300 3500 
L 978 3500 
L 1906 2253 
L 2834 3500 
L 3513 3500 
z
" transform="scale(0.015625)"/>
     </defs>
     <use xlink:href="#DejaVuSans-53"/>
     <use xlink:href="#DejaVuSans-74" x="63.476562"/>
     <use xlink:href="#DejaVuSans-61" x="102.685547"/>
     <use xlink:href="#DejaVuSans-74" x="163.964844"/>
     <use xlink:href="#DejaVuSans-65" x="203.173828"/>
     <use xlink:href="#DejaVuSans-20" x="264.697266"/>
     <use xlink:href="#DejaVuSans-4d" x="296.484375"/>
     <use xlink:href="#DejaVuSans-61" x="382.763672"/>
     <use xlink:href="#DejaVuSans-63" x="444.042969"/>
     <use xlink:href="#DejaVuSans-68" x="499.023438"/>
     <use xlink:href="#DejaVuSans-69" x="562.402344"/>
     <use xlink:href="#DejaVuSans-6e" x="590.185547"/>
     <use xlink:href="#DejaVuSans-65" x="653.564453"/>
     <use xlink:href="#DejaVuSans-20" x="715.087891"/>
     <use xlink:href="#DejaVuSans-4f" x="746.875"/>
     <use xlink:href="#DejaVuSans-70" x="825.585938"/>
     <use xlink:href="#DejaVuSans-65" x="889.0625"/>
     <use xlink:href="#DejaVuSans-72" x="950.585938"/>
     <use xlink:href="#DejaVuSans-61" x="991.699219"/>
     <use xlink:href="#DejaVuSans-74" x="1052.978516"/>
     <use xlink:href="#DejaVuSans-6f" x="1092.1875"/>
     <use xlink:href="#DejaVuSans-72" x="1153.369141"/>
     <use xlink:href="#DejaVuSans-20" x="1194.482422"/>
     <use xlink:href="#DejaVuSans-4a" x="1226.269531"/>
     <use xlink:href="#DejaVuSans-6f" x="1255.761719"/>
     <use xlink:href="#DejaVuSans-62" x="1316.943359"/>
     <use xlink:href="#DejaVuSans-20" x="1380.419922"/>
     <use xlink:href="#DejaVuSans-54" x="1412.207031"/>
     <use xlink:href="#DejaVuSans-69" x="1470.166016"/>
     <use xlink:href="#DejaVuSans-6d" x="1497.949219"/>
     <use xlink:href="#DejaVuSans-65" x="1595.361328"/>
     <use xlink:href="#DejaVuSans-73" x="1656.884766"/>
     <use xlink:href="#DejaVuSans-20" x="1708.984375"/>
     <use xlink:href="#DejaVuSans-42" x="1740.771484"/>
     <use xlink:href="#DejaVuSans-79" x="1809.375"/>
     <use xlink:href="#DejaVuSans-20" x="1868.554688"/>
     <use xlink:href="#DejaVuSans-45" x="1900.341797"/>
     <use xlink:href="#DejaVuSans-78" x="1963.525391"/>
     <use xlink:href="#DejaVuSans-70" x="2022.705078"/>
     <use xlink:href="#DejaVuSans-65" x="2086.181641"/>
     <use xlink:href="#DejaVuSans-72" x="2147.705078"/>
     <use xlink:href="#DejaVuSans-69" x="2188.818359"/>
     <use xlink:href="#DejaVuSans-6d" x="2216.601562"/>
     <use xlink:href="#DejaVuSans-65" x="2314.013672"/>
     <use xlink:href="#DejaVuSans-6e" x="2375.537109"/>
     <use xlink:href="#DejaVuSans-74" x="2438.916016"/>
    </g>
   </g>
   <g id="legend_1">
    <g id="patch_19">
     <path d="M 87.93 92.1525 
L 189.994063 92.1525 
Q 191.994063 92.1525 191.994063 90.1525 
L 191.994063 32.44 
Q 191.994063 30.44 189.994063 30.44 
L 87.93 30.44 
Q 85.93 30.44 85.93 32.44 
L 85.93 90.1525 
Q 85.93 92.1525 87.93 92.1525 
z
" style="fill: #eaeaf2; opacity: 0.8; stroke: #cccccc; stroke-linejoin: miter"/>
    </g>
    <g id="text_16">
     <!-- experiment -->
     <g style="fill: #262626" transform="translate(110.2425 42.038437) scale(0.1 -0.1)">
      <use xlink:href="#DejaVuSans-65"/>
      <use xlink:href="#DejaVuSans-78" x="59.773438"/>
      <use xlink:href="#DejaVuSans-70" x="118.953125"/>
      <use xlink:href="#DejaVuSans-65" x="182.429688"/>
      <use xlink:href="#DejaVuSans-72" x="243.953125"/>
      <use xlink:href="#DejaVuSans-69" x="285.066406"/>
      <use xlink:href="#DejaVuSans-6d" x="312.849609"/>
      <use xlink:href="#DejaVuSans-65" x="410.261719"/>
      <use xlink:href="#DejaVuSans-6e" x="471.785156"/>
      <use xlink:href="#DejaVuSans-74" x="535.164062"/>
     </g>
    </g>
    <g id="patch_20">
     <path d="M 89.93 56.716563 
L 109.93 56.716563 
L 109.93 49.716563 
L 89.93 49.716563 
z
" style="fill: #3274a1; stroke: #3d3d3d; stroke-width: 1.8; stroke-linejoin: miter"/>
    </g>
    <g id="text_17">
     <!-- cpu-static -->
     <g style="fill: #262626" transform="translate(117.93 56.716563) scale(0.1 -0.1)">
      <defs>
       <path id="DejaVuSans-2d" d="M 313 2009 
L 1997 2009 
L 1997 1497 
L 313 1497 
L 313 2009 
z
" transform="scale(0.015625)"/>
      </defs>
      <use xlink:href="#DejaVuSans-63"/>
      <use xlink:href="#DejaVuSans-70" x="54.980469"/>
      <use xlink:href="#DejaVuSans-75" x="118.457031"/>
      <use xlink:href="#DejaVuSans-2d" x="181.835938"/>
      <use xlink:href="#DejaVuSans-73" x="217.919922"/>
      <use xlink:href="#DejaVuSans-74" x="270.019531"/>
      <use xlink:href="#DejaVuSans-61" x="309.228516"/>
      <use xlink:href="#DejaVuSans-74" x="370.507812"/>
      <use xlink:href="#DejaVuSans-69" x="409.716797"/>
      <use xlink:href="#DejaVuSans-63" x="437.5"/>
     </g>
    </g>
    <g id="patch_21">
     <path d="M 89.93 71.394688 
L 109.93 71.394688 
L 109.93 64.394688 
L 89.93 64.394688 
z
" style="fill: #e1812c; stroke: #3d3d3d; stroke-width: 1.8; stroke-linejoin: miter"/>
    </g>
    <g id="text_18">
     <!-- cpu-autoscale -->
     <g style="fill: #262626" transform="translate(117.93 71.394688) scale(0.1 -0.1)">
      <use xlink:href="#DejaVuSans-63"/>
      <use xlink:href="#DejaVuSans-70" x="54.980469"/>
      <use xlink:href="#DejaVuSans-75" x="118.457031"/>
      <use xlink:href="#DejaVuSans-2d" x="181.835938"/>
      <use xlink:href="#DejaVuSans-61" x="217.919922"/>
      <use xlink:href="#DejaVuSans-75" x="279.199219"/>
      <use xlink:href="#DejaVuSans-74" x="342.578125"/>
      <use xlink:href="#DejaVuSans-6f" x="381.787109"/>
      <use xlink:href="#DejaVuSans-73" x="442.96875"/>
      <use xlink:href="#DejaVuSans-63" x="495.068359"/>
      <use xlink:href="#DejaVuSans-61" x="550.048828"/>
      <use xlink:href="#DejaVuSans-6c" x="611.328125"/>
      <use xlink:href="#DejaVuSans-65" x="639.111328"/>
     </g>
    </g>
    <g id="patch_22">
     <path d="M 89.93 86.072812 
L 109.93 86.072812 
L 109.93 79.072812 
L 89.93 79.072812 
z
" style="fill: #3a923a; stroke: #3d3d3d; stroke-width: 1.8; stroke-linejoin: miter"/>
    </g>
    <g id="text_19">
     <!-- gpu-static -->
     <g style="fill: #262626" transform="translate(117.93 86.072812) scale(0.1 -0.1)">
      <use xlink:href="#DejaVuSans-67"/>
      <use xlink:href="#DejaVuSans-70" x="63.476562"/>
      <use xlink:href="#DejaVuSans-75" x="126.953125"/>
      <use xlink:href="#DejaVuSans-2d" x="190.332031"/>
      <use xlink:href="#DejaVuSans-73" x="226.416016"/>
      <use xlink:href="#DejaVuSans-74" x="278.515625"/>
      <use xlink:href="#DejaVuSans-61" x="317.724609"/>
      <use xlink:href="#DejaVuSans-74" x="379.003906"/>
      <use xlink:href="#DejaVuSans-69" x="418.212891"/>
      <use xlink:href="#DejaVuSans-63" x="445.996094"/>
     </g>
    </g>
   </g>
  </g>
 </g>
 <defs>
  <clipPath id="p88a9b84c3d">
   <rect x="80.93" y="25.44" width="412.27" height="361"/>
  </clipPath>
 </defs>
</svg>
