<?xml version="1.0" encoding="utf-8" standalone="no"?>
<!DOCTYPE svg PUBLIC "-//W3C//DTD SVG 1.1//EN"
  "http://www.w3.org/Graphics/SVG/1.1/DTD/svg11.dtd">
<svg xmlns:xlink="http://www.w3.org/1999/xlink" width="432pt" height="288pt" viewBox="0 0 432 288" xmlns="http://www.w3.org/2000/svg" version="1.1">
 <metadata>
  <rdf:RDF xmlns:dc="http://purl.org/dc/elements/1.1/" xmlns:cc="http://creativecommons.org/ns#" xmlns:rdf="http://www.w3.org/1999/02/22-rdf-syntax-ns#">
   <cc:Work>
    <dc:type rdf:resource="http://purl.org/dc/dcmitype/StillImage"/>
    <dc:date>2025-04-13T22:30:35.355798</dc:date>
    <dc:format>image/svg+xml</dc:format>
    <dc:creator>
     <cc:Agent>
      <dc:title>Matplotlib v3.8.4, https://matplotlib.org/</dc:title>
     </cc:Agent>
    </dc:creator>
   </cc:Work>
  </rdf:RDF>
 </metadata>
 <defs>
  <style type="text/css">*{stroke-linejoin: round; stroke-linecap: butt}</style>
 </defs>
 <g id="figure_1">
  <g id="patch_1">
   <path d="M 0 288 
L 432 288 
L 432 0 
L 0 0 
z
" style="fill: #ffffff"/>
  </g>
  <g id="axes_1">
   <g id="patch_2">
    <path d="M 85.59 251.86 
L 419.04 251.86 
L 419.04 27.6 
L 85.59 27.6 
z
" style="fill: #ffffff"/>
   </g>
   <g id="matplotlib.axis_1">
    <g id="xtick_1">
     <g id="text_1">
      <!-- cpu -->
      <g style="fill: #262626" transform="translate(156.223437 271.997813) scale(0.14 -0.14)">
       <defs>
        <path id="DejaVuSans-63" d="M 3122 3366 
L 3122 2828 
Q 2878 2963 2633 3030 
Q 2388 3097 2138 3097 
Q 1578 3097 1268 2742 
Q 959 2388 959 1747 
Q 959 1106 1268 751 
Q 1578 397 2138 397 
Q 2388 397 2633 464 
Q 2878 531 3122 666 
L 3122 134 
Q 2881 22 2623 -34 
Q 2366 -91 2075 -91 
Q 1284 -91 818 406 
Q 353 903 353 1747 
Q 353 2603 823 3093 
Q 1294 3584 2113 3584 
Q 2378 3584 2631 3529 
Q 2884 3475 3122 3366 
z
" transform="scale(0.015625)"/>
        <path id="DejaVuSans-70" d="M 1159 525 
L 1159 -1331 
L 581 -1331 
L 581 3500 
L 1159 3500 
L 1159 2969 
Q 1341 3281 1617 3432 
Q 1894 3584 2278 3584 
Q 2916 3584 3314 3078 
Q 3713 2572 3713 1747 
Q 3713 922 3314 415 
Q 2916 -91 2278 -91 
Q 1894 -91 1617 61 
Q 1341 213 1159 525 
z
M 3116 1747 
Q 3116 2381 2855 2742 
Q 2594 3103 2138 3103 
Q 1681 3103 1420 2742 
Q 1159 2381 1159 1747 
Q 1159 1113 1420 752 
Q 1681 391 2138 391 
Q 2594 391 2855 752 
Q 3116 1113 3116 1747 
z
" transform="scale(0.015625)"/>
        <path id="DejaVuSans-75" d="M 544 1381 
L 544 3500 
L 1119 3500 
L 1119 1403 
Q 1119 906 1312 657 
Q 1506 409 1894 409 
Q 2359 409 2629 706 
Q 2900 1003 2900 1516 
L 2900 3500 
L 3475 3500 
L 3475 0 
L 2900 0 
L 2900 538 
Q 2691 219 2414 64 
Q 2138 -91 1772 -91 
Q 1169 -91 856 284 
Q 544 659 544 1381 
z
M 1991 3584 
L 1991 3584 
z
" transform="scale(0.015625)"/>
       </defs>
       <use xlink:href="#DejaVuSans-63"/>
       <use xlink:href="#DejaVuSans-70" x="54.980469"/>
       <use xlink:href="#DejaVuSans-75" x="118.457031"/>
      </g>
     </g>
    </g>
    <g id="xtick_2">
     <g id="text_2">
      <!-- gpu -->
      <g style="fill: #262626" transform="translate(322.353437 271.997813) scale(0.14 -0.14)">
       <defs>
        <path id="DejaVuSans-67" d="M 2906 1791 
Q 2906 2416 2648 2759 
Q 2391 3103 1925 3103 
Q 1463 3103 1205 2759 
Q 947 2416 947 1791 
Q 947 1169 1205 825 
Q 1463 481 1925 481 
Q 2391 481 2648 825 
Q 2906 1169 2906 1791 
z
M 3481 434 
Q 3481 -459 3084 -895 
Q 2688 -1331 1869 -1331 
Q 1566 -1331 1297 -1286 
Q 1028 -1241 775 -1147 
L 775 -588 
Q 1028 -725 1275 -790 
Q 1522 -856 1778 -856 
Q 2344 -856 2625 -561 
Q 2906 -266 2906 331 
L 2906 616 
Q 2728 306 2450 153 
Q 2172 0 1784 0 
Q 1141 0 747 490 
Q 353 981 353 1791 
Q 353 2603 747 3093 
Q 1141 3584 1784 3584 
Q 2172 3584 2450 3431 
Q 2728 3278 2906 2969 
L 2906 3500 
L 3481 3500 
L 3481 434 
z
" transform="scale(0.015625)"/>
       </defs>
       <use xlink:href="#DejaVuSans-67"/>
       <use xlink:href="#DejaVuSans-70" x="63.476562"/>
       <use xlink:href="#DejaVuSans-75" x="126.953125"/>
      </g>
     </g>
    </g>
   </g>
   <g id="matplotlib.axis_2">
    <g id="ytick_1">
     <g id="line2d_1">
      <path d="M 85.59 251.86 
L 419.04 251.86 
" clip-path="url(#p85caa04ccc)" style="fill: none; stroke: #cccccc; stroke-linecap: round"/>
     </g>
     <g id="text_3">
      <!-- 0.0 -->
      <g style="fill: #262626" transform="translate(53.825625 257.178906) scale(0.14 -0.14)">
       <defs>
        <path id="DejaVuSans-30" d="M 2034 4250 
Q 1547 4250 1301 3770 
Q 1056 3291 1056 2328 
Q 1056 1369 1301 889 
Q 1547 409 2034 409 
Q 2525 409 2770 889 
Q 3016 1369 3016 2328 
Q 3016 3291 2770 3770 
Q 2525 4250 2034 4250 
z
M 2034 4750 
Q 2819 4750 3233 4129 
Q 3647 3509 3647 2328 
Q 3647 1150 3233 529 
Q 2819 -91 2034 -91 
Q 1250 -91 836 529 
Q 422 1150 422 2328 
Q 422 3509 836 4129 
Q 1250 4750 2034 4750 
z
" transform="scale(0.015625)"/>
        <path id="DejaVuSans-2e" d="M 684 794 
L 1344 794 
L 1344 0 
L 684 0 
L 684 794 
z
" transform="scale(0.015625)"/>
       </defs>
       <use xlink:href="#DejaVuSans-30"/>
       <use xlink:href="#DejaVuSans-2e" x="63.623047"/>
       <use xlink:href="#DejaVuSans-30" x="95.410156"/>
      </g>
     </g>
    </g>
    <g id="ytick_2">
     <g id="line2d_2">
      <path d="M 85.59 214.483333 
L 419.04 214.483333 
" clip-path="url(#p85caa04ccc)" style="fill: none; stroke: #cccccc; stroke-linecap: round"/>
     </g>
     <g id="text_4">
      <!-- 200.0 -->
      <g style="fill: #262626" transform="translate(36.010625 219.80224) scale(0.14 -0.14)">
       <defs>
        <path id="DejaVuSans-32" d="M 1228 531 
L 3431 531 
L 3431 0 
L 469 0 
L 469 531 
Q 828 903 1448 1529 
Q 2069 2156 2228 2338 
Q 2531 2678 2651 2914 
Q 2772 3150 2772 3378 
Q 2772 3750 2511 3984 
Q 2250 4219 1831 4219 
Q 1534 4219 1204 4116 
Q 875 4013 500 3803 
L 500 4441 
Q 881 4594 1212 4672 
Q 1544 4750 1819 4750 
Q 2544 4750 2975 4387 
Q 3406 4025 3406 3419 
Q 3406 3131 3298 2873 
Q 3191 2616 2906 2266 
Q 2828 2175 2409 1742 
Q 1991 1309 1228 531 
z
" transform="scale(0.015625)"/>
       </defs>
       <use xlink:href="#DejaVuSans-32"/>
       <use xlink:href="#DejaVuSans-30" x="63.623047"/>
       <use xlink:href="#DejaVuSans-30" x="127.246094"/>
       <use xlink:href="#DejaVuSans-2e" x="190.869141"/>
       <use xlink:href="#DejaVuSans-30" x="222.65625"/>
      </g>
     </g>
    </g>
    <g id="ytick_3">
     <g id="line2d_3">
      <path d="M 85.59 177.106667 
L 419.04 177.106667 
" clip-path="url(#p85caa04ccc)" style="fill: none; stroke: #cccccc; stroke-linecap: round"/>
     </g>
     <g id="text_5">
      <!-- 400.0 -->
      <g style="fill: #262626" transform="translate(36.010625 182.425573) scale(0.14 -0.14)">
       <defs>
        <path id="DejaVuSans-34" d="M 2419 4116 
L 825 1625 
L 2419 1625 
L 2419 4116 
z
M 2253 4666 
L 3047 4666 
L 3047 1625 
L 3713 1625 
L 3713 1100 
L 3047 1100 
L 3047 0 
L 2419 0 
L 2419 1100 
L 313 1100 
L 313 1709 
L 2253 4666 
z
" transform="scale(0.015625)"/>
       </defs>
       <use xlink:href="#DejaVuSans-34"/>
       <use xlink:href="#DejaVuSans-30" x="63.623047"/>
       <use xlink:href="#DejaVuSans-30" x="127.246094"/>
       <use xlink:href="#DejaVuSans-2e" x="190.869141"/>
       <use xlink:href="#DejaVuSans-30" x="222.65625"/>
      </g>
     </g>
    </g>
    <g id="ytick_4">
     <g id="line2d_4">
      <path d="M 85.59 139.73 
L 419.04 139.73 
" clip-path="url(#p85caa04ccc)" style="fill: none; stroke: #cccccc; stroke-linecap: round"/>
     </g>
     <g id="text_6">
      <!-- 600.0 -->
      <g style="fill: #262626" transform="translate(36.010625 145.048906) scale(0.14 -0.14)">
       <defs>
        <path id="DejaVuSans-36" d="M 2113 2584 
Q 1688 2584 1439 2293 
Q 1191 2003 1191 1497 
Q 1191 994 1439 701 
Q 1688 409 2113 409 
Q 2538 409 2786 701 
Q 3034 994 3034 1497 
Q 3034 2003 2786 2293 
Q 2538 2584 2113 2584 
z
M 3366 4563 
L 3366 3988 
Q 3128 4100 2886 4159 
Q 2644 4219 2406 4219 
Q 1781 4219 1451 3797 
Q 1122 3375 1075 2522 
Q 1259 2794 1537 2939 
Q 1816 3084 2150 3084 
Q 2853 3084 3261 2657 
Q 3669 2231 3669 1497 
Q 3669 778 3244 343 
Q 2819 -91 2113 -91 
Q 1303 -91 875 529 
Q 447 1150 447 2328 
Q 447 3434 972 4092 
Q 1497 4750 2381 4750 
Q 2619 4750 2861 4703 
Q 3103 4656 3366 4563 
z
" transform="scale(0.015625)"/>
       </defs>
       <use xlink:href="#DejaVuSans-36"/>
       <use xlink:href="#DejaVuSans-30" x="63.623047"/>
       <use xlink:href="#DejaVuSans-30" x="127.246094"/>
       <use xlink:href="#DejaVuSans-2e" x="190.869141"/>
       <use xlink:href="#DejaVuSans-30" x="222.65625"/>
      </g>
     </g>
    </g>
    <g id="ytick_5">
     <g id="line2d_5">
      <path d="M 85.59 102.353333 
L 419.04 102.353333 
" clip-path="url(#p85caa04ccc)" style="fill: none; stroke: #cccccc; stroke-linecap: round"/>
     </g>
     <g id="text_7">
      <!-- 800.0 -->
      <g style="fill: #262626" transform="translate(36.010625 107.67224) scale(0.14 -0.14)">
       <defs>
        <path id="DejaVuSans-38" d="M 2034 2216 
Q 1584 2216 1326 1975 
Q 1069 1734 1069 1313 
Q 1069 891 1326 650 
Q 1584 409 2034 409 
Q 2484 409 2743 651 
Q 3003 894 3003 1313 
Q 3003 1734 2745 1975 
Q 2488 2216 2034 2216 
z
M 1403 2484 
Q 997 2584 770 2862 
Q 544 3141 544 3541 
Q 544 4100 942 4425 
Q 1341 4750 2034 4750 
Q 2731 4750 3128 4425 
Q 3525 4100 3525 3541 
Q 3525 3141 3298 2862 
Q 3072 2584 2669 2484 
Q 3125 2378 3379 2068 
Q 3634 1759 3634 1313 
Q 3634 634 3220 271 
Q 2806 -91 2034 -91 
Q 1263 -91 848 271 
Q 434 634 434 1313 
Q 434 1759 690 2068 
Q 947 2378 1403 2484 
z
M 1172 3481 
Q 1172 3119 1398 2916 
Q 1625 2713 2034 2713 
Q 2441 2713 2670 2916 
Q 2900 3119 2900 3481 
Q 2900 3844 2670 4047 
Q 2441 4250 2034 4250 
Q 1625 4250 1398 4047 
Q 1172 3844 1172 3481 
z
" transform="scale(0.015625)"/>
       </defs>
       <use xlink:href="#DejaVuSans-38"/>
       <use xlink:href="#DejaVuSans-30" x="63.623047"/>
       <use xlink:href="#DejaVuSans-30" x="127.246094"/>
       <use xlink:href="#DejaVuSans-2e" x="190.869141"/>
       <use xlink:href="#DejaVuSans-30" x="222.65625"/>
      </g>
     </g>
    </g>
    <g id="ytick_6">
     <g id="line2d_6">
      <path d="M 85.59 64.976667 
L 419.04 64.976667 
" clip-path="url(#p85caa04ccc)" style="fill: none; stroke: #cccccc; stroke-linecap: round"/>
     </g>
     <g id="text_8">
      <!-- 1000.0 -->
      <g style="fill: #262626" transform="translate(27.103125 70.295573) scale(0.14 -0.14)">
       <defs>
        <path id="DejaVuSans-31" d="M 794 531 
L 1825 531 
L 1825 4091 
L 703 3866 
L 703 4441 
L 1819 4666 
L 2450 4666 
L 2450 531 
L 3481 531 
L 3481 0 
L 794 0 
L 794 531 
z
" transform="scale(0.015625)"/>
       </defs>
       <use xlink:href="#DejaVuSans-31"/>
       <use xlink:href="#DejaVuSans-30" x="63.623047"/>
       <use xlink:href="#DejaVuSans-30" x="127.246094"/>
       <use xlink:href="#DejaVuSans-30" x="190.869141"/>
       <use xlink:href="#DejaVuSans-2e" x="254.492188"/>
       <use xlink:href="#DejaVuSans-30" x="286.279297"/>
      </g>
     </g>
    </g>
    <g id="ytick_7">
     <g id="line2d_7">
      <path d="M 85.59 27.6 
L 419.04 27.6 
" clip-path="url(#p85caa04ccc)" style="fill: none; stroke: #cccccc; stroke-linecap: round"/>
     </g>
     <g id="text_9">
      <!-- 1200.0 -->
      <g style="fill: #262626" transform="translate(27.103125 32.918906) scale(0.14 -0.14)">
       <use xlink:href="#DejaVuSans-31"/>
       <use xlink:href="#DejaVuSans-32" x="63.623047"/>
       <use xlink:href="#DejaVuSans-30" x="127.246094"/>
       <use xlink:href="#DejaVuSans-30" x="190.869141"/>
       <use xlink:href="#DejaVuSans-2e" x="254.492188"/>
       <use xlink:href="#DejaVuSans-30" x="286.279297"/>
      </g>
     </g>
    </g>
    <g id="text_10">
     <!-- Duration (Seconds) -->
     <g style="fill: #262626" transform="translate(21.023437 187.943281) rotate(-90) scale(0.1 -0.1)">
      <defs>
       <path id="DejaVuSans-44" d="M 1259 4147 
L 1259 519 
L 2022 519 
Q 2988 519 3436 956 
Q 3884 1394 3884 2338 
Q 3884 3275 3436 3711 
Q 2988 4147 2022 4147 
L 1259 4147 
z
M 628 4666 
L 1925 4666 
Q 3281 4666 3915 4102 
Q 4550 3538 4550 2338 
Q 4550 1131 3912 565 
Q 3275 0 1925 0 
L 628 0 
L 628 4666 
z
" transform="scale(0.015625)"/>
       <path id="DejaVuSans-72" d="M 2631 2963 
Q 2534 3019 2420 3045 
Q 2306 3072 2169 3072 
Q 1681 3072 1420 2755 
Q 1159 2438 1159 1844 
L 1159 0 
L 581 0 
L 581 3500 
L 1159 3500 
L 1159 2956 
Q 1341 3275 1631 3429 
Q 1922 3584 2338 3584 
Q 2397 3584 2469 3576 
Q 2541 3569 2628 3553 
L 2631 2963 
z
" transform="scale(0.015625)"/>
       <path id="DejaVuSans-61" d="M 2194 1759 
Q 1497 1759 1228 1600 
Q 959 1441 959 1056 
Q 959 750 1161 570 
Q 1363 391 1709 391 
Q 2188 391 2477 730 
Q 2766 1069 2766 1631 
L 2766 1759 
L 2194 1759 
z
M 3341 1997 
L 3341 0 
L 2766 0 
L 2766 531 
Q 2569 213 2275 61 
Q 1981 -91 1556 -91 
Q 1019 -91 701 211 
Q 384 513 384 1019 
Q 384 1609 779 1909 
Q 1175 2209 1959 2209 
L 2766 2209 
L 2766 2266 
Q 2766 2663 2505 2880 
Q 2244 3097 1772 3097 
Q 1472 3097 1187 3025 
Q 903 2953 641 2809 
L 641 3341 
Q 956 3463 1253 3523 
Q 1550 3584 1831 3584 
Q 2591 3584 2966 3190 
Q 3341 2797 3341 1997 
z
" transform="scale(0.015625)"/>
       <path id="DejaVuSans-74" d="M 1172 4494 
L 1172 3500 
L 2356 3500 
L 2356 3053 
L 1172 3053 
L 1172 1153 
Q 1172 725 1289 603 
Q 1406 481 1766 481 
L 2356 481 
L 2356 0 
L 1766 0 
Q 1100 0 847 248 
Q 594 497 594 1153 
L 594 3053 
L 172 3053 
L 172 3500 
L 594 3500 
L 594 4494 
L 1172 4494 
z
" transform="scale(0.015625)"/>
       <path id="DejaVuSans-69" d="M 603 3500 
L 1178 3500 
L 1178 0 
L 603 0 
L 603 3500 
z
M 603 4863 
L 1178 4863 
L 1178 4134 
L 603 4134 
L 603 4863 
z
" transform="scale(0.015625)"/>
       <path id="DejaVuSans-6f" d="M 1959 3097 
Q 1497 3097 1228 2736 
Q 959 2375 959 1747 
Q 959 1119 1226 758 
Q 1494 397 1959 397 
Q 2419 397 2687 759 
Q 2956 1122 2956 1747 
Q 2956 2369 2687 2733 
Q 2419 3097 1959 3097 
z
M 1959 3584 
Q 2709 3584 3137 3096 
Q 3566 2609 3566 1747 
Q 3566 888 3137 398 
Q 2709 -91 1959 -91 
Q 1206 -91 779 398 
Q 353 888 353 1747 
Q 353 2609 779 3096 
Q 1206 3584 1959 3584 
z
" transform="scale(0.015625)"/>
       <path id="DejaVuSans-6e" d="M 3513 2113 
L 3513 0 
L 2938 0 
L 2938 2094 
Q 2938 2591 2744 2837 
Q 2550 3084 2163 3084 
Q 1697 3084 1428 2787 
Q 1159 2491 1159 1978 
L 1159 0 
L 581 0 
L 581 3500 
L 1159 3500 
L 1159 2956 
Q 1366 3272 1645 3428 
Q 1925 3584 2291 3584 
Q 2894 3584 3203 3211 
Q 3513 2838 3513 2113 
z
" transform="scale(0.015625)"/>
       <path id="DejaVuSans-20" transform="scale(0.015625)"/>
       <path id="DejaVuSans-28" d="M 1984 4856 
Q 1566 4138 1362 3434 
Q 1159 2731 1159 2009 
Q 1159 1288 1364 580 
Q 1569 -128 1984 -844 
L 1484 -844 
Q 1016 -109 783 600 
Q 550 1309 550 2009 
Q 550 2706 781 3412 
Q 1013 4119 1484 4856 
L 1984 4856 
z
" transform="scale(0.015625)"/>
       <path id="DejaVuSans-53" d="M 3425 4513 
L 3425 3897 
Q 3066 4069 2747 4153 
Q 2428 4238 2131 4238 
Q 1616 4238 1336 4038 
Q 1056 3838 1056 3469 
Q 1056 3159 1242 3001 
Q 1428 2844 1947 2747 
L 2328 2669 
Q 3034 2534 3370 2195 
Q 3706 1856 3706 1288 
Q 3706 609 3251 259 
Q 2797 -91 1919 -91 
Q 1588 -91 1214 -16 
Q 841 59 441 206 
L 441 856 
Q 825 641 1194 531 
Q 1563 422 1919 422 
Q 2459 422 2753 634 
Q 3047 847 3047 1241 
Q 3047 1584 2836 1778 
Q 2625 1972 2144 2069 
L 1759 2144 
Q 1053 2284 737 2584 
Q 422 2884 422 3419 
Q 422 4038 858 4394 
Q 1294 4750 2059 4750 
Q 2388 4750 2728 4690 
Q 3069 4631 3425 4513 
z
" transform="scale(0.015625)"/>
       <path id="DejaVuSans-65" d="M 3597 1894 
L 3597 1613 
L 953 1613 
Q 991 1019 1311 708 
Q 1631 397 2203 397 
Q 2534 397 2845 478 
Q 3156 559 3463 722 
L 3463 178 
Q 3153 47 2828 -22 
Q 2503 -91 2169 -91 
Q 1331 -91 842 396 
Q 353 884 353 1716 
Q 353 2575 817 3079 
Q 1281 3584 2069 3584 
Q 2775 3584 3186 3129 
Q 3597 2675 3597 1894 
z
M 3022 2063 
Q 3016 2534 2758 2815 
Q 2500 3097 2075 3097 
Q 1594 3097 1305 2825 
Q 1016 2553 972 2059 
L 3022 2063 
z
" transform="scale(0.015625)"/>
       <path id="DejaVuSans-64" d="M 2906 2969 
L 2906 4863 
L 3481 4863 
L 3481 0 
L 2906 0 
L 2906 525 
Q 2725 213 2448 61 
Q 2172 -91 1784 -91 
Q 1150 -91 751 415 
Q 353 922 353 1747 
Q 353 2572 751 3078 
Q 1150 3584 1784 3584 
Q 2172 3584 2448 3432 
Q 2725 3281 2906 2969 
z
M 947 1747 
Q 947 1113 1208 752 
Q 1469 391 1925 391 
Q 2381 391 2643 752 
Q 2906 1113 2906 1747 
Q 2906 2381 2643 2742 
Q 2381 3103 1925 3103 
Q 1469 3103 1208 2742 
Q 947 2381 947 1747 
z
" transform="scale(0.015625)"/>
       <path id="DejaVuSans-73" d="M 2834 3397 
L 2834 2853 
Q 2591 2978 2328 3040 
Q 2066 3103 1784 3103 
Q 1356 3103 1142 2972 
Q 928 2841 928 2578 
Q 928 2378 1081 2264 
Q 1234 2150 1697 2047 
L 1894 2003 
Q 2506 1872 2764 1633 
Q 3022 1394 3022 966 
Q 3022 478 2636 193 
Q 2250 -91 1575 -91 
Q 1294 -91 989 -36 
Q 684 19 347 128 
L 347 722 
Q 666 556 975 473 
Q 1284 391 1588 391 
Q 1994 391 2212 530 
Q 2431 669 2431 922 
Q 2431 1156 2273 1281 
Q 2116 1406 1581 1522 
L 1381 1569 
Q 847 1681 609 1914 
Q 372 2147 372 2553 
Q 372 3047 722 3315 
Q 1072 3584 1716 3584 
Q 2034 3584 2315 3537 
Q 2597 3491 2834 3397 
z
" transform="scale(0.015625)"/>
       <path id="DejaVuSans-29" d="M 513 4856 
L 1013 4856 
Q 1481 4119 1714 3412 
Q 1947 2706 1947 2009 
Q 1947 1309 1714 600 
Q 1481 -109 1013 -844 
L 513 -844 
Q 928 -128 1133 580 
Q 1338 1288 1338 2009 
Q 1338 2731 1133 3434 
Q 928 4138 513 4856 
z
" transform="scale(0.015625)"/>
      </defs>
      <use xlink:href="#DejaVuSans-44"/>
      <use xlink:href="#DejaVuSans-75" x="77.001953"/>
      <use xlink:href="#DejaVuSans-72" x="140.380859"/>
      <use xlink:href="#DejaVuSans-61" x="181.494141"/>
      <use xlink:href="#DejaVuSans-74" x="242.773438"/>
      <use xlink:href="#DejaVuSans-69" x="281.982422"/>
      <use xlink:href="#DejaVuSans-6f" x="309.765625"/>
      <use xlink:href="#DejaVuSans-6e" x="370.947266"/>
      <use xlink:href="#DejaVuSans-20" x="434.326172"/>
      <use xlink:href="#DejaVuSans-28" x="466.113281"/>
      <use xlink:href="#DejaVuSans-53" x="505.126953"/>
      <use xlink:href="#DejaVuSans-65" x="568.603516"/>
      <use xlink:href="#DejaVuSans-63" x="630.126953"/>
      <use xlink:href="#DejaVuSans-6f" x="685.107422"/>
      <use xlink:href="#DejaVuSans-6e" x="746.289062"/>
      <use xlink:href="#DejaVuSans-64" x="809.667969"/>
      <use xlink:href="#DejaVuSans-73" x="873.144531"/>
      <use xlink:href="#DejaVuSans-29" x="925.244141"/>
     </g>
    </g>
   </g>
   <g id="patch_3">
    <path d="M 168.9525 251.86 
L 168.9525 251.86 
L 168.9525 251.86 
L 168.9525 251.86 
z
" clip-path="url(#p85caa04ccc)" style="fill: #3274a1; stroke: #3d3d3d; stroke-width: 1.8; stroke-linejoin: miter"/>
   </g>
   <g id="patch_4">
    <path d="M 168.9525 251.86 
L 168.9525 251.86 
L 168.9525 251.86 
L 168.9525 251.86 
z
" clip-path="url(#p85caa04ccc)" style="fill: #e1812c; stroke: #3d3d3d; stroke-width: 1.8; stroke-linejoin: miter"/>
   </g>
   <g id="patch_5">
    <path d="M 168.9525 251.86 
L 168.9525 251.86 
L 168.9525 251.86 
L 168.9525 251.86 
z
" clip-path="url(#p85caa04ccc)" style="fill: #3a923a; stroke: #3d3d3d; stroke-width: 1.8; stroke-linejoin: miter"/>
   </g>
   <g id="patch_6">
    <path d="M 168.9525 251.86 
L 168.9525 251.86 
L 168.9525 251.86 
L 168.9525 251.86 
z
" clip-path="url(#p85caa04ccc)" style="fill: #c03d3e; stroke: #3d3d3d; stroke-width: 1.8; stroke-linejoin: miter"/>
   </g>
   <g id="patch_7">
    <path d="M 168.9525 251.86 
L 168.9525 251.86 
L 168.9525 251.86 
L 168.9525 251.86 
z
" clip-path="url(#p85caa04ccc)" style="fill: #9372b2; stroke: #3d3d3d; stroke-width: 1.8; stroke-linejoin: miter"/>
   </g>
   <g id="patch_8">
    <path d="M 102.2625 163.214911 
L 128.9385 163.214911 
L 128.9385 159.962317 
L 102.2625 159.962317 
L 102.2625 163.214911 
z
" clip-path="url(#p85caa04ccc)" style="fill: #3274a1; stroke: #3d3d3d; stroke-width: 1.8; stroke-linejoin: miter"/>
   </g>
   <g id="line2d_8">
    <path d="M 115.6005 163.214911 
L 115.6005 163.671245 
" clip-path="url(#p85caa04ccc)" style="fill: none; stroke: #3d3d3d; stroke-width: 1.8"/>
   </g>
   <g id="line2d_9">
    <path d="M 115.6005 159.962317 
L 115.6005 157.67016 
" clip-path="url(#p85caa04ccc)" style="fill: none; stroke: #3d3d3d; stroke-width: 1.8"/>
   </g>
   <g id="line2d_10">
    <path d="M 108.9315 163.671245 
L 122.2695 163.671245 
" clip-path="url(#p85caa04ccc)" style="fill: none; stroke: #3d3d3d; stroke-width: 1.8; stroke-linecap: round"/>
   </g>
   <g id="line2d_11">
    <path d="M 108.9315 157.67016 
L 122.2695 157.67016 
" clip-path="url(#p85caa04ccc)" style="fill: none; stroke: #3d3d3d; stroke-width: 1.8; stroke-linecap: round"/>
   </g>
   <g id="line2d_12">
    <defs>
     <path id="m5229c9f037" d="M 0 3 
C 0.795609 3 1.55874 2.683901 2.12132 2.12132 
C 2.683901 1.55874 3 0.795609 3 0 
C 3 -0.795609 2.683901 -1.55874 2.12132 -2.12132 
C 1.55874 -2.683901 0.795609 -3 0 -3 
C -0.795609 -3 -1.55874 -2.683901 -2.12132 -2.12132 
C -2.683901 -1.55874 -3 -0.795609 -3 0 
C -3 0.795609 -2.683901 1.55874 -2.12132 2.12132 
C -1.55874 2.683901 -0.795609 3 0 3 
z
" style="stroke: #3d3d3d"/>
    </defs>
    <g clip-path="url(#p85caa04ccc)">
     <use xlink:href="#m5229c9f037" x="115.6005" y="163.777623" style="fill-opacity: 0; stroke: #3d3d3d"/>
     <use xlink:href="#m5229c9f037" x="115.6005" y="163.79306" style="fill-opacity: 0; stroke: #3d3d3d"/>
     <use xlink:href="#m5229c9f037" x="115.6005" y="164.421602" style="fill-opacity: 0; stroke: #3d3d3d"/>
     <use xlink:href="#m5229c9f037" x="115.6005" y="157.552259" style="fill-opacity: 0; stroke: #3d3d3d"/>
     <use xlink:href="#m5229c9f037" x="115.6005" y="153.953848" style="fill-opacity: 0; stroke: #3d3d3d"/>
     <use xlink:href="#m5229c9f037" x="115.6005" y="157.028318" style="fill-opacity: 0; stroke: #3d3d3d"/>
    </g>
   </g>
   <g id="patch_9">
    <path d="M 268.9875 104.469 
L 295.6635 104.469 
L 295.6635 99.158959 
L 268.9875 99.158959 
L 268.9875 104.469 
z
" clip-path="url(#p85caa04ccc)" style="fill: #3274a1; stroke: #3d3d3d; stroke-width: 1.8; stroke-linejoin: miter"/>
   </g>
   <g id="line2d_13">
    <path d="M 282.3255 104.469 
L 282.3255 105.746346 
" clip-path="url(#p85caa04ccc)" style="fill: none; stroke: #3d3d3d; stroke-width: 1.8"/>
   </g>
   <g id="line2d_14">
    <path d="M 282.3255 99.158959 
L 282.3255 78.130402 
" clip-path="url(#p85caa04ccc)" style="fill: none; stroke: #3d3d3d; stroke-width: 1.8"/>
   </g>
   <g id="line2d_15">
    <path d="M 275.6565 105.746346 
L 288.9945 105.746346 
" clip-path="url(#p85caa04ccc)" style="fill: none; stroke: #3d3d3d; stroke-width: 1.8; stroke-linecap: round"/>
   </g>
   <g id="line2d_16">
    <path d="M 275.6565 78.130402 
L 288.9945 78.130402 
" clip-path="url(#p85caa04ccc)" style="fill: none; stroke: #3d3d3d; stroke-width: 1.8; stroke-linecap: round"/>
   </g>
   <g id="line2d_17">
    <g clip-path="url(#p85caa04ccc)">
     <use xlink:href="#m5229c9f037" x="282.3255" y="105.868069" style="fill-opacity: 0; stroke: #3d3d3d"/>
     <use xlink:href="#m5229c9f037" x="282.3255" y="106.088094" style="fill-opacity: 0; stroke: #3d3d3d"/>
     <use xlink:href="#m5229c9f037" x="282.3255" y="105.961479" style="fill-opacity: 0; stroke: #3d3d3d"/>
     <use xlink:href="#m5229c9f037" x="282.3255" y="71.313676" style="fill-opacity: 0; stroke: #3d3d3d"/>
     <use xlink:href="#m5229c9f037" x="282.3255" y="60.94388" style="fill-opacity: 0; stroke: #3d3d3d"/>
     <use xlink:href="#m5229c9f037" x="282.3255" y="50.73583" style="fill-opacity: 0; stroke: #3d3d3d"/>
    </g>
   </g>
   <g id="patch_10">
    <path d="M 128.9385 163.522575 
L 155.6145 163.522575 
L 155.6145 161.474958 
L 128.9385 161.474958 
L 128.9385 163.522575 
z
" clip-path="url(#p85caa04ccc)" style="fill: #e1812c; stroke: #3d3d3d; stroke-width: 1.8; stroke-linejoin: miter"/>
   </g>
   <g id="line2d_18">
    <path d="M 142.2765 163.522575 
L 142.2765 164.224252 
" clip-path="url(#p85caa04ccc)" style="fill: none; stroke: #3d3d3d; stroke-width: 1.8"/>
   </g>
   <g id="line2d_19">
    <path d="M 142.2765 161.474958 
L 142.2765 158.914163 
" clip-path="url(#p85caa04ccc)" style="fill: none; stroke: #3d3d3d; stroke-width: 1.8"/>
   </g>
   <g id="line2d_20">
    <path d="M 135.6075 164.224252 
L 148.9455 164.224252 
" clip-path="url(#p85caa04ccc)" style="fill: none; stroke: #3d3d3d; stroke-width: 1.8; stroke-linecap: round"/>
   </g>
   <g id="line2d_21">
    <path d="M 135.6075 158.914163 
L 148.9455 158.914163 
" clip-path="url(#p85caa04ccc)" style="fill: none; stroke: #3d3d3d; stroke-width: 1.8; stroke-linecap: round"/>
   </g>
   <g id="line2d_22">
    <g clip-path="url(#p85caa04ccc)">
     <use xlink:href="#m5229c9f037" x="142.2765" y="165.685198" style="fill-opacity: 0; stroke: #3d3d3d"/>
     <use xlink:href="#m5229c9f037" x="142.2765" y="164.371419" style="fill-opacity: 0; stroke: #3d3d3d"/>
     <use xlink:href="#m5229c9f037" x="142.2765" y="158.763857" style="fill-opacity: 0; stroke: #3d3d3d"/>
     <use xlink:href="#m5229c9f037" x="142.2765" y="157.66698" style="fill-opacity: 0; stroke: #3d3d3d"/>
    </g>
   </g>
   <g id="patch_11">
    <path d="M 295.6635 104.042134 
L 322.3395 104.042134 
L 322.3395 100.586133 
L 295.6635 100.586133 
L 295.6635 104.042134 
z
" clip-path="url(#p85caa04ccc)" style="fill: #e1812c; stroke: #3d3d3d; stroke-width: 1.8; stroke-linejoin: miter"/>
   </g>
   <g id="line2d_23">
    <path d="M 309.0015 104.042134 
L 309.0015 105.743424 
" clip-path="url(#p85caa04ccc)" style="fill: none; stroke: #3d3d3d; stroke-width: 1.8"/>
   </g>
   <g id="line2d_24">
    <path d="M 309.0015 100.586133 
L 309.0015 98.657827 
" clip-path="url(#p85caa04ccc)" style="fill: none; stroke: #3d3d3d; stroke-width: 1.8"/>
   </g>
   <g id="line2d_25">
    <path d="M 302.3325 105.743424 
L 315.6705 105.743424 
" clip-path="url(#p85caa04ccc)" style="fill: none; stroke: #3d3d3d; stroke-width: 1.8; stroke-linecap: round"/>
   </g>
   <g id="line2d_26">
    <path d="M 302.3325 98.657827 
L 315.6705 98.657827 
" clip-path="url(#p85caa04ccc)" style="fill: none; stroke: #3d3d3d; stroke-width: 1.8; stroke-linecap: round"/>
   </g>
   <g id="line2d_27">
    <g clip-path="url(#p85caa04ccc)">
     <use xlink:href="#m5229c9f037" x="309.0015" y="106.067877" style="fill-opacity: 0; stroke: #3d3d3d"/>
     <use xlink:href="#m5229c9f037" x="309.0015" y="106.353718" style="fill-opacity: 0; stroke: #3d3d3d"/>
     <use xlink:href="#m5229c9f037" x="309.0015" y="96.343575" style="fill-opacity: 0; stroke: #3d3d3d"/>
     <use xlink:href="#m5229c9f037" x="309.0015" y="95.606636" style="fill-opacity: 0; stroke: #3d3d3d"/>
    </g>
   </g>
   <g id="patch_12">
    <path d="M 155.6145 163.264949 
L 182.2905 163.264949 
L 182.2905 161.8994 
L 155.6145 161.8994 
L 155.6145 163.264949 
z
" clip-path="url(#p85caa04ccc)" style="fill: #3a923a; stroke: #3d3d3d; stroke-width: 1.8; stroke-linejoin: miter"/>
   </g>
   <g id="line2d_28">
    <path d="M 168.9525 163.264949 
L 168.9525 164.229258 
" clip-path="url(#p85caa04ccc)" style="fill: none; stroke: #3d3d3d; stroke-width: 1.8"/>
   </g>
   <g id="line2d_29">
    <path d="M 168.9525 161.8994 
L 168.9525 158.248778 
" clip-path="url(#p85caa04ccc)" style="fill: none; stroke: #3d3d3d; stroke-width: 1.8"/>
   </g>
   <g id="line2d_30">
    <path d="M 162.2835 164.229258 
L 175.6215 164.229258 
" clip-path="url(#p85caa04ccc)" style="fill: none; stroke: #3d3d3d; stroke-width: 1.8; stroke-linecap: round"/>
   </g>
   <g id="line2d_31">
    <path d="M 162.2835 158.248778 
L 175.6215 158.248778 
" clip-path="url(#p85caa04ccc)" style="fill: none; stroke: #3d3d3d; stroke-width: 1.8; stroke-linecap: round"/>
   </g>
   <g id="line2d_32">
    <g clip-path="url(#p85caa04ccc)">
     <use xlink:href="#m5229c9f037" x="168.9525" y="164.354708" style="fill-opacity: 0; stroke: #3d3d3d"/>
     <use xlink:href="#m5229c9f037" x="168.9525" y="164.385266" style="fill-opacity: 0; stroke: #3d3d3d"/>
     <use xlink:href="#m5229c9f037" x="168.9525" y="158.084517" style="fill-opacity: 0; stroke: #3d3d3d"/>
     <use xlink:href="#m5229c9f037" x="168.9525" y="158.099592" style="fill-opacity: 0; stroke: #3d3d3d"/>
    </g>
   </g>
   <g id="patch_13">
    <path d="M 322.3395 103.079275 
L 349.0155 103.079275 
L 349.0155 98.946324 
L 322.3395 98.946324 
L 322.3395 103.079275 
z
" clip-path="url(#p85caa04ccc)" style="fill: #3a923a; stroke: #3d3d3d; stroke-width: 1.8; stroke-linejoin: miter"/>
   </g>
   <g id="line2d_33">
    <path d="M 335.6775 103.079275 
L 335.6775 104.415213 
" clip-path="url(#p85caa04ccc)" style="fill: none; stroke: #3d3d3d; stroke-width: 1.8"/>
   </g>
   <g id="line2d_34">
    <path d="M 335.6775 98.946324 
L 335.6775 96.717654 
" clip-path="url(#p85caa04ccc)" style="fill: none; stroke: #3d3d3d; stroke-width: 1.8"/>
   </g>
   <g id="line2d_35">
    <path d="M 329.0085 104.415213 
L 342.3465 104.415213 
" clip-path="url(#p85caa04ccc)" style="fill: none; stroke: #3d3d3d; stroke-width: 1.8; stroke-linecap: round"/>
   </g>
   <g id="line2d_36">
    <path d="M 329.0085 96.717654 
L 342.3465 96.717654 
" clip-path="url(#p85caa04ccc)" style="fill: none; stroke: #3d3d3d; stroke-width: 1.8; stroke-linecap: round"/>
   </g>
   <g id="line2d_37">
    <g clip-path="url(#p85caa04ccc)">
     <use xlink:href="#m5229c9f037" x="335.6775" y="104.873541" style="fill-opacity: 0; stroke: #3d3d3d"/>
     <use xlink:href="#m5229c9f037" x="335.6775" y="104.529126" style="fill-opacity: 0; stroke: #3d3d3d"/>
     <use xlink:href="#m5229c9f037" x="335.6775" y="90.88258" style="fill-opacity: 0; stroke: #3d3d3d"/>
     <use xlink:href="#m5229c9f037" x="335.6775" y="92.023265" style="fill-opacity: 0; stroke: #3d3d3d"/>
    </g>
   </g>
   <g id="patch_14">
    <path d="M 182.2905 160.164617 
L 208.9665 160.164617 
L 208.9665 158.039699 
L 182.2905 158.039699 
L 182.2905 160.164617 
z
" clip-path="url(#p85caa04ccc)" style="fill: #c03d3e; stroke: #3d3d3d; stroke-width: 1.8; stroke-linejoin: miter"/>
   </g>
   <g id="line2d_38">
    <path d="M 195.6285 160.164617 
L 195.6285 160.879631 
" clip-path="url(#p85caa04ccc)" style="fill: none; stroke: #3d3d3d; stroke-width: 1.8"/>
   </g>
   <g id="line2d_39">
    <path d="M 195.6285 158.039699 
L 195.6285 154.906106 
" clip-path="url(#p85caa04ccc)" style="fill: none; stroke: #3d3d3d; stroke-width: 1.8"/>
   </g>
   <g id="line2d_40">
    <path d="M 188.9595 160.879631 
L 202.2975 160.879631 
" clip-path="url(#p85caa04ccc)" style="fill: none; stroke: #3d3d3d; stroke-width: 1.8; stroke-linecap: round"/>
   </g>
   <g id="line2d_41">
    <path d="M 188.9595 154.906106 
L 202.2975 154.906106 
" clip-path="url(#p85caa04ccc)" style="fill: none; stroke: #3d3d3d; stroke-width: 1.8; stroke-linecap: round"/>
   </g>
   <g id="line2d_42">
    <g clip-path="url(#p85caa04ccc)">
     <use xlink:href="#m5229c9f037" x="195.6285" y="161.309824" style="fill-opacity: 0; stroke: #3d3d3d"/>
     <use xlink:href="#m5229c9f037" x="195.6285" y="161.336735" style="fill-opacity: 0; stroke: #3d3d3d"/>
     <use xlink:href="#m5229c9f037" x="195.6285" y="153.817662" style="fill-opacity: 0; stroke: #3d3d3d"/>
     <use xlink:href="#m5229c9f037" x="195.6285" y="154.725561" style="fill-opacity: 0; stroke: #3d3d3d"/>
    </g>
   </g>
   <g id="patch_15">
    <path d="M 349.0155 123.957232 
L 375.6915 123.957232 
L 375.6915 121.191266 
L 349.0155 121.191266 
L 349.0155 123.957232 
z
" clip-path="url(#p85caa04ccc)" style="fill: #c03d3e; stroke: #3d3d3d; stroke-width: 1.8; stroke-linejoin: miter"/>
   </g>
   <g id="line2d_43">
    <path d="M 362.3535 123.957232 
L 362.3535 125.809637 
" clip-path="url(#p85caa04ccc)" style="fill: none; stroke: #3d3d3d; stroke-width: 1.8"/>
   </g>
   <g id="line2d_44">
    <path d="M 362.3535 121.191266 
L 362.3535 118.48571 
" clip-path="url(#p85caa04ccc)" style="fill: none; stroke: #3d3d3d; stroke-width: 1.8"/>
   </g>
   <g id="line2d_45">
    <path d="M 355.6845 125.809637 
L 369.0225 125.809637 
" clip-path="url(#p85caa04ccc)" style="fill: none; stroke: #3d3d3d; stroke-width: 1.8; stroke-linecap: round"/>
   </g>
   <g id="line2d_46">
    <path d="M 355.6845 118.48571 
L 369.0225 118.48571 
" clip-path="url(#p85caa04ccc)" style="fill: none; stroke: #3d3d3d; stroke-width: 1.8; stroke-linecap: round"/>
   </g>
   <g id="line2d_47">
    <g clip-path="url(#p85caa04ccc)">
     <use xlink:href="#m5229c9f037" x="362.3535" y="126.336069" style="fill-opacity: 0; stroke: #3d3d3d"/>
     <use xlink:href="#m5229c9f037" x="362.3535" y="126.707988" style="fill-opacity: 0; stroke: #3d3d3d"/>
     <use xlink:href="#m5229c9f037" x="362.3535" y="113.090776" style="fill-opacity: 0; stroke: #3d3d3d"/>
     <use xlink:href="#m5229c9f037" x="362.3535" y="114.343462" style="fill-opacity: 0; stroke: #3d3d3d"/>
    </g>
   </g>
   <g id="patch_16">
    <path d="M 375.6915 138.852523 
L 402.3675 138.852523 
L 402.3675 122.746008 
L 375.6915 122.746008 
L 375.6915 138.852523 
z
" clip-path="url(#p85caa04ccc)" style="fill: #9372b2; stroke: #3d3d3d; stroke-width: 1.8; stroke-linejoin: miter"/>
   </g>
   <g id="line2d_48">
    <path d="M 389.0295 138.852523 
L 389.0295 149.114637 
" clip-path="url(#p85caa04ccc)" style="fill: none; stroke: #3d3d3d; stroke-width: 1.8"/>
   </g>
   <g id="line2d_49">
    <path d="M 389.0295 122.746008 
L 389.0295 116.162735 
" clip-path="url(#p85caa04ccc)" style="fill: none; stroke: #3d3d3d; stroke-width: 1.8"/>
   </g>
   <g id="line2d_50">
    <path d="M 382.3605 149.114637 
L 395.6985 149.114637 
" clip-path="url(#p85caa04ccc)" style="fill: none; stroke: #3d3d3d; stroke-width: 1.8; stroke-linecap: round"/>
   </g>
   <g id="line2d_51">
    <path d="M 382.3605 116.162735 
L 395.6985 116.162735 
" clip-path="url(#p85caa04ccc)" style="fill: none; stroke: #3d3d3d; stroke-width: 1.8; stroke-linecap: round"/>
   </g>
   <g id="line2d_52">
    <g clip-path="url(#p85caa04ccc)">
     <use xlink:href="#m5229c9f037" x="389.0295" y="152.250885" style="fill-opacity: 0; stroke: #3d3d3d"/>
     <use xlink:href="#m5229c9f037" x="389.0295" y="152.251263" style="fill-opacity: 0; stroke: #3d3d3d"/>
     <use xlink:href="#m5229c9f037" x="389.0295" y="153.853961" style="fill-opacity: 0; stroke: #3d3d3d"/>
     <use xlink:href="#m5229c9f037" x="389.0295" y="150.996092" style="fill-opacity: 0; stroke: #3d3d3d"/>
     <use xlink:href="#m5229c9f037" x="389.0295" y="113.730924" style="fill-opacity: 0; stroke: #3d3d3d"/>
     <use xlink:href="#m5229c9f037" x="389.0295" y="115.827812" style="fill-opacity: 0; stroke: #3d3d3d"/>
     <use xlink:href="#m5229c9f037" x="389.0295" y="115.266849" style="fill-opacity: 0; stroke: #3d3d3d"/>
     <use xlink:href="#m5229c9f037" x="389.0295" y="112.797869" style="fill-opacity: 0; stroke: #3d3d3d"/>
    </g>
   </g>
   <g id="line2d_53">
    <path d="M 102.2625 162.762976 
L 128.9385 162.762976 
" clip-path="url(#p85caa04ccc)" style="fill: none; stroke: #3d3d3d; stroke-width: 1.8"/>
   </g>
   <g id="line2d_54">
    <path d="M 268.9875 101.220732 
L 295.6635 101.220732 
" clip-path="url(#p85caa04ccc)" style="fill: none; stroke: #3d3d3d; stroke-width: 1.8"/>
   </g>
   <g id="line2d_55">
    <path d="M 128.9385 162.680951 
L 155.6145 162.680951 
" clip-path="url(#p85caa04ccc)" style="fill: none; stroke: #3d3d3d; stroke-width: 1.8"/>
   </g>
   <g id="line2d_56">
    <path d="M 295.6635 102.832993 
L 322.3395 102.832993 
" clip-path="url(#p85caa04ccc)" style="fill: none; stroke: #3d3d3d; stroke-width: 1.8"/>
   </g>
   <g id="line2d_57">
    <path d="M 155.6145 162.732099 
L 182.2905 162.732099 
" clip-path="url(#p85caa04ccc)" style="fill: none; stroke: #3d3d3d; stroke-width: 1.8"/>
   </g>
   <g id="line2d_58">
    <path d="M 322.3395 100.939757 
L 349.0155 100.939757 
" clip-path="url(#p85caa04ccc)" style="fill: none; stroke: #3d3d3d; stroke-width: 1.8"/>
   </g>
   <g id="line2d_59">
    <path d="M 182.2905 159.819482 
L 208.9665 159.819482 
" clip-path="url(#p85caa04ccc)" style="fill: none; stroke: #3d3d3d; stroke-width: 1.8"/>
   </g>
   <g id="line2d_60">
    <path d="M 349.0155 123.048375 
L 375.6915 123.048375 
" clip-path="url(#p85caa04ccc)" style="fill: none; stroke: #3d3d3d; stroke-width: 1.8"/>
   </g>
   <g id="line2d_61">
    <path d="M 375.6915 127.415023 
L 402.3675 127.415023 
" clip-path="url(#p85caa04ccc)" style="fill: none; stroke: #3d3d3d; stroke-width: 1.8"/>
   </g>
   <g id="patch_17">
    <path d="M 85.59 251.86 
L 85.59 27.6 
" style="fill: none; stroke: #cccccc; stroke-width: 1.25; stroke-linejoin: miter; stroke-linecap: square"/>
   </g>
   <g id="patch_18">
    <path d="M 419.04 251.86 
L 419.04 27.6 
" style="fill: none; stroke: #cccccc; stroke-width: 1.25; stroke-linejoin: miter; stroke-linecap: square"/>
   </g>
   <g id="patch_19">
    <path d="M 85.59 251.86 
L 419.04 251.86 
" style="fill: none; stroke: #cccccc; stroke-width: 1.25; stroke-linejoin: miter; stroke-linecap: square"/>
   </g>
   <g id="patch_20">
    <path d="M 85.59 27.6 
L 419.04 27.6 
" style="fill: none; stroke: #cccccc; stroke-width: 1.25; stroke-linejoin: miter; stroke-linecap: square"/>
   </g>
   <g id="text_11">
    <!-- Createsim Times by Experiment -->
    <g style="fill: #262626" transform="translate(156.189375 21.6) scale(0.12 -0.12)">
     <defs>
      <path id="DejaVuSans-43" d="M 4122 4306 
L 4122 3641 
Q 3803 3938 3442 4084 
Q 3081 4231 2675 4231 
Q 1875 4231 1450 3742 
Q 1025 3253 1025 2328 
Q 1025 1406 1450 917 
Q 1875 428 2675 428 
Q 3081 428 3442 575 
Q 3803 722 4122 1019 
L 4122 359 
Q 3791 134 3420 21 
Q 3050 -91 2638 -91 
Q 1578 -91 968 557 
Q 359 1206 359 2328 
Q 359 3453 968 4101 
Q 1578 4750 2638 4750 
Q 3056 4750 3426 4639 
Q 3797 4528 4122 4306 
z
" transform="scale(0.015625)"/>
      <path id="DejaVuSans-6d" d="M 3328 2828 
Q 3544 3216 3844 3400 
Q 4144 3584 4550 3584 
Q 5097 3584 5394 3201 
Q 5691 2819 5691 2113 
L 5691 0 
L 5113 0 
L 5113 2094 
Q 5113 2597 4934 2840 
Q 4756 3084 4391 3084 
Q 3944 3084 3684 2787 
Q 3425 2491 3425 1978 
L 3425 0 
L 2847 0 
L 2847 2094 
Q 2847 2600 2669 2842 
Q 2491 3084 2119 3084 
Q 1678 3084 1418 2786 
Q 1159 2488 1159 1978 
L 1159 0 
L 581 0 
L 581 3500 
L 1159 3500 
L 1159 2956 
Q 1356 3278 1631 3431 
Q 1906 3584 2284 3584 
Q 2666 3584 2933 3390 
Q 3200 3197 3328 2828 
z
" transform="scale(0.015625)"/>
      <path id="DejaVuSans-54" d="M -19 4666 
L 3928 4666 
L 3928 4134 
L 2272 4134 
L 2272 0 
L 1638 0 
L 1638 4134 
L -19 4134 
L -19 4666 
z
" transform="scale(0.015625)"/>
      <path id="DejaVuSans-62" d="M 3116 1747 
Q 3116 2381 2855 2742 
Q 2594 3103 2138 3103 
Q 1681 3103 1420 2742 
Q 1159 2381 1159 1747 
Q 1159 1113 1420 752 
Q 1681 391 2138 391 
Q 2594 391 2855 752 
Q 3116 1113 3116 1747 
z
M 1159 2969 
Q 1341 3281 1617 3432 
Q 1894 3584 2278 3584 
Q 2916 3584 3314 3078 
Q 3713 2572 3713 1747 
Q 3713 922 3314 415 
Q 2916 -91 2278 -91 
Q 1894 -91 1617 61 
Q 1341 213 1159 525 
L 1159 0 
L 581 0 
L 581 4863 
L 1159 4863 
L 1159 2969 
z
" transform="scale(0.015625)"/>
      <path id="DejaVuSans-79" d="M 2059 -325 
Q 1816 -950 1584 -1140 
Q 1353 -1331 966 -1331 
L 506 -1331 
L 506 -850 
L 844 -850 
Q 1081 -850 1212 -737 
Q 1344 -625 1503 -206 
L 1606 56 
L 191 3500 
L 800 3500 
L 1894 763 
L 2988 3500 
L 3597 3500 
L 2059 -325 
z
" transform="scale(0.015625)"/>
      <path id="DejaVuSans-45" d="M 628 4666 
L 3578 4666 
L 3578 4134 
L 1259 4134 
L 1259 2753 
L 3481 2753 
L 3481 2222 
L 1259 2222 
L 1259 531 
L 3634 531 
L 3634 0 
L 628 0 
L 628 4666 
z
" transform="scale(0.015625)"/>
      <path id="DejaVuSans-78" d="M 3513 3500 
L 2247 1797 
L 3578 0 
L 2900 0 
L 1881 1375 
L 863 0 
L 184 0 
L 1544 1831 
L 300 3500 
L 978 3500 
L 1906 2253 
L 2834 3500 
L 3513 3500 
z
" transform="scale(0.015625)"/>
     </defs>
     <use xlink:href="#DejaVuSans-43"/>
     <use xlink:href="#DejaVuSans-72" x="69.824219"/>
     <use xlink:href="#DejaVuSans-65" x="108.6875"/>
     <use xlink:href="#DejaVuSans-61" x="170.210938"/>
     <use xlink:href="#DejaVuSans-74" x="231.490234"/>
     <use xlink:href="#DejaVuSans-65" x="270.699219"/>
     <use xlink:href="#DejaVuSans-73" x="332.222656"/>
     <use xlink:href="#DejaVuSans-69" x="384.322266"/>
     <use xlink:href="#DejaVuSans-6d" x="412.105469"/>
     <use xlink:href="#DejaVuSans-20" x="509.517578"/>
     <use xlink:href="#DejaVuSans-54" x="541.304688"/>
     <use xlink:href="#DejaVuSans-69" x="599.263672"/>
     <use xlink:href="#DejaVuSans-6d" x="627.046875"/>
     <use xlink:href="#DejaVuSans-65" x="724.458984"/>
     <use xlink:href="#DejaVuSans-73" x="785.982422"/>
     <use xlink:href="#DejaVuSans-20" x="838.082031"/>
     <use xlink:href="#DejaVuSans-62" x="869.869141"/>
     <use xlink:href="#DejaVuSans-79" x="933.345703"/>
     <use xlink:href="#DejaVuSans-20" x="992.525391"/>
     <use xlink:href="#DejaVuSans-45" x="1024.3125"/>
     <use xlink:href="#DejaVuSans-78" x="1087.496094"/>
     <use xlink:href="#DejaVuSans-70" x="1146.675781"/>
     <use xlink:href="#DejaVuSans-65" x="1210.152344"/>
     <use xlink:href="#DejaVuSans-72" x="1271.675781"/>
     <use xlink:href="#DejaVuSans-69" x="1312.789062"/>
     <use xlink:href="#DejaVuSans-6d" x="1340.572266"/>
     <use xlink:href="#DejaVuSans-65" x="1437.984375"/>
     <use xlink:href="#DejaVuSans-6e" x="1499.507812"/>
     <use xlink:href="#DejaVuSans-74" x="1562.886719"/>
    </g>
   </g>
   <g id="legend_1">
    <g id="patch_21">
     <path d="M 93.29 117.129688 
L 263.716094 117.129688 
Q 265.916094 117.129688 265.916094 114.929688 
L 265.916094 35.3 
Q 265.916094 33.1 263.716094 33.1 
L 93.29 33.1 
Q 91.09 33.1 91.09 35.3 
L 91.09 114.929688 
Q 91.09 117.129688 93.29 117.129688 
z
" style="fill: #ffffff; opacity: 0.8; stroke: #cccccc; stroke-linejoin: miter"/>
    </g>
    <g id="patch_22">
     <path d="M 95.49 45.858281 
L 117.49 45.858281 
L 117.49 38.158281 
L 95.49 38.158281 
z
" style="fill: #3274a1; stroke: #3d3d3d; stroke-width: 1.8; stroke-linejoin: miter"/>
    </g>
    <g id="text_12">
     <!-- mummi -->
     <g style="fill: #262626" transform="translate(126.29 45.858281) scale(0.11 -0.11)">
      <use xlink:href="#DejaVuSans-6d"/>
      <use xlink:href="#DejaVuSans-75" x="97.412109"/>
      <use xlink:href="#DejaVuSans-6d" x="160.791016"/>
      <use xlink:href="#DejaVuSans-6d" x="258.203125"/>
      <use xlink:href="#DejaVuSans-69" x="355.615234"/>
     </g>
    </g>
    <g id="patch_23">
     <path d="M 95.49 62.004219 
L 117.49 62.004219 
L 117.49 54.304219 
L 95.49 54.304219 
z
" style="fill: #e1812c; stroke: #3d3d3d; stroke-width: 1.8; stroke-linejoin: miter"/>
    </g>
    <g id="text_13">
     <!-- state machine -->
     <g style="fill: #262626" transform="translate(126.29 62.004219) scale(0.11 -0.11)">
      <defs>
       <path id="DejaVuSans-68" d="M 3513 2113 
L 3513 0 
L 2938 0 
L 2938 2094 
Q 2938 2591 2744 2837 
Q 2550 3084 2163 3084 
Q 1697 3084 1428 2787 
Q 1159 2491 1159 1978 
L 1159 0 
L 581 0 
L 581 4863 
L 1159 4863 
L 1159 2956 
Q 1366 3272 1645 3428 
Q 1925 3584 2291 3584 
Q 2894 3584 3203 3211 
Q 3513 2838 3513 2113 
z
" transform="scale(0.015625)"/>
      </defs>
      <use xlink:href="#DejaVuSans-73"/>
      <use xlink:href="#DejaVuSans-74" x="52.099609"/>
      <use xlink:href="#DejaVuSans-61" x="91.308594"/>
      <use xlink:href="#DejaVuSans-74" x="152.587891"/>
      <use xlink:href="#DejaVuSans-65" x="191.796875"/>
      <use xlink:href="#DejaVuSans-20" x="253.320312"/>
      <use xlink:href="#DejaVuSans-6d" x="285.107422"/>
      <use xlink:href="#DejaVuSans-61" x="382.519531"/>
      <use xlink:href="#DejaVuSans-63" x="443.798828"/>
      <use xlink:href="#DejaVuSans-68" x="498.779297"/>
      <use xlink:href="#DejaVuSans-69" x="562.158203"/>
      <use xlink:href="#DejaVuSans-6e" x="589.941406"/>
      <use xlink:href="#DejaVuSans-65" x="653.320312"/>
     </g>
    </g>
    <g id="patch_24">
     <path d="M 95.49 78.150156 
L 117.49 78.150156 
L 117.49 70.450156 
L 95.49 70.450156 
z
" style="fill: #3a923a; stroke: #3d3d3d; stroke-width: 1.8; stroke-linejoin: miter"/>
    </g>
    <g id="text_14">
     <!-- state machine autoscale -->
     <g style="fill: #262626" transform="translate(126.29 78.150156) scale(0.11 -0.11)">
      <defs>
       <path id="DejaVuSans-6c" d="M 603 4863 
L 1178 4863 
L 1178 0 
L 603 0 
L 603 4863 
z
" transform="scale(0.015625)"/>
      </defs>
      <use xlink:href="#DejaVuSans-73"/>
      <use xlink:href="#DejaVuSans-74" x="52.099609"/>
      <use xlink:href="#DejaVuSans-61" x="91.308594"/>
      <use xlink:href="#DejaVuSans-74" x="152.587891"/>
      <use xlink:href="#DejaVuSans-65" x="191.796875"/>
      <use xlink:href="#DejaVuSans-20" x="253.320312"/>
      <use xlink:href="#DejaVuSans-6d" x="285.107422"/>
      <use xlink:href="#DejaVuSans-61" x="382.519531"/>
      <use xlink:href="#DejaVuSans-63" x="443.798828"/>
      <use xlink:href="#DejaVuSans-68" x="498.779297"/>
      <use xlink:href="#DejaVuSans-69" x="562.158203"/>
      <use xlink:href="#DejaVuSans-6e" x="589.941406"/>
      <use xlink:href="#DejaVuSans-65" x="653.320312"/>
      <use xlink:href="#DejaVuSans-20" x="714.84375"/>
      <use xlink:href="#DejaVuSans-61" x="746.630859"/>
      <use xlink:href="#DejaVuSans-75" x="807.910156"/>
      <use xlink:href="#DejaVuSans-74" x="871.289062"/>
      <use xlink:href="#DejaVuSans-6f" x="910.498047"/>
      <use xlink:href="#DejaVuSans-73" x="971.679688"/>
      <use xlink:href="#DejaVuSans-63" x="1023.779297"/>
      <use xlink:href="#DejaVuSans-61" x="1078.759766"/>
      <use xlink:href="#DejaVuSans-6c" x="1140.039062"/>
      <use xlink:href="#DejaVuSans-65" x="1167.822266"/>
     </g>
    </g>
    <g id="patch_25">
     <path d="M 95.49 94.296094 
L 117.49 94.296094 
L 117.49 86.596094 
L 95.49 86.596094 
z
" style="fill: #c03d3e; stroke: #3d3d3d; stroke-width: 1.8; stroke-linejoin: miter"/>
    </g>
    <g id="text_15">
     <!-- flux state machine -->
     <g style="fill: #262626" transform="translate(126.29 94.296094) scale(0.11 -0.11)">
      <defs>
       <path id="DejaVuSans-66" d="M 2375 4863 
L 2375 4384 
L 1825 4384 
Q 1516 4384 1395 4259 
Q 1275 4134 1275 3809 
L 1275 3500 
L 2222 3500 
L 2222 3053 
L 1275 3053 
L 1275 0 
L 697 0 
L 697 3053 
L 147 3053 
L 147 3500 
L 697 3500 
L 697 3744 
Q 697 4328 969 4595 
Q 1241 4863 1831 4863 
L 2375 4863 
z
" transform="scale(0.015625)"/>
      </defs>
      <use xlink:href="#DejaVuSans-66"/>
      <use xlink:href="#DejaVuSans-6c" x="35.205078"/>
      <use xlink:href="#DejaVuSans-75" x="62.988281"/>
      <use xlink:href="#DejaVuSans-78" x="126.367188"/>
      <use xlink:href="#DejaVuSans-20" x="185.546875"/>
      <use xlink:href="#DejaVuSans-73" x="217.333984"/>
      <use xlink:href="#DejaVuSans-74" x="269.433594"/>
      <use xlink:href="#DejaVuSans-61" x="308.642578"/>
      <use xlink:href="#DejaVuSans-74" x="369.921875"/>
      <use xlink:href="#DejaVuSans-65" x="409.130859"/>
      <use xlink:href="#DejaVuSans-20" x="470.654297"/>
      <use xlink:href="#DejaVuSans-6d" x="502.441406"/>
      <use xlink:href="#DejaVuSans-61" x="599.853516"/>
      <use xlink:href="#DejaVuSans-63" x="661.132812"/>
      <use xlink:href="#DejaVuSans-68" x="716.113281"/>
      <use xlink:href="#DejaVuSans-69" x="779.492188"/>
      <use xlink:href="#DejaVuSans-6e" x="807.275391"/>
      <use xlink:href="#DejaVuSans-65" x="870.654297"/>
     </g>
    </g>
    <g id="patch_26">
     <path d="M 95.49 110.442031 
L 117.49 110.442031 
L 117.49 102.742031 
L 95.49 102.742031 
z
" style="fill: #9372b2; stroke: #3d3d3d; stroke-width: 1.8; stroke-linejoin: miter"/>
    </g>
    <g id="text_16">
     <!-- on premises -->
     <g style="fill: #262626" transform="translate(126.29 110.442031) scale(0.11 -0.11)">
      <use xlink:href="#DejaVuSans-6f"/>
      <use xlink:href="#DejaVuSans-6e" x="61.181641"/>
      <use xlink:href="#DejaVuSans-20" x="124.560547"/>
      <use xlink:href="#DejaVuSans-70" x="156.347656"/>
      <use xlink:href="#DejaVuSans-72" x="219.824219"/>
      <use xlink:href="#DejaVuSans-65" x="258.6875"/>
      <use xlink:href="#DejaVuSans-6d" x="320.210938"/>
      <use xlink:href="#DejaVuSans-69" x="417.623047"/>
      <use xlink:href="#DejaVuSans-73" x="445.40625"/>
      <use xlink:href="#DejaVuSans-65" x="497.505859"/>
      <use xlink:href="#DejaVuSans-73" x="559.029297"/>
     </g>
    </g>
   </g>
  </g>
 </g>
 <defs>
  <clipPath id="p85caa04ccc">
   <rect x="85.59" y="27.6" width="333.45" height="224.26"/>
  </clipPath>
 </defs>
</svg>
