<?xml version="1.0" encoding="utf-8" standalone="no"?>
<!DOCTYPE svg PUBLIC "-//W3C//DTD SVG 1.1//EN"
  "http://www.w3.org/Graphics/SVG/1.1/DTD/svg11.dtd">
<svg xmlns:xlink="http://www.w3.org/1999/xlink" width="432pt" height="288pt" viewBox="0 0 432 288" xmlns="http://www.w3.org/2000/svg" version="1.1">
 <metadata>
  <rdf:RDF xmlns:dc="http://purl.org/dc/elements/1.1/" xmlns:cc="http://creativecommons.org/ns#" xmlns:rdf="http://www.w3.org/1999/02/22-rdf-syntax-ns#">
   <cc:Work>
    <dc:type rdf:resource="http://purl.org/dc/dcmitype/StillImage"/>
    <dc:date>2025-04-13T22:30:32.203317</dc:date>
    <dc:format>image/svg+xml</dc:format>
    <dc:creator>
     <cc:Agent>
      <dc:title>Matplotlib v3.8.4, https://matplotlib.org/</dc:title>
     </cc:Agent>
    </dc:creator>
   </cc:Work>
  </rdf:RDF>
 </metadata>
 <defs>
  <style type="text/css">*{stroke-linejoin: round; stroke-linecap: butt}</style>
 </defs>
 <g id="figure_1">
  <g id="patch_1">
   <path d="M 0 288 
L 432 288 
L 432 0 
L 0 0 
z
" style="fill: #ffffff"/>
  </g>
  <g id="axes_1">
   <g id="patch_2">
    <path d="M 12.96 251.86 
L 419.04 251.86 
L 419.04 27.6 
L 12.96 27.6 
z
" style="fill: #ffffff"/>
   </g>
   <g id="matplotlib.axis_1">
    <g id="xtick_1">
     <g id="text_1">
      <!-- cpu -->
      <g style="fill: #262626" transform="translate(101.750937 271.997813) scale(0.14 -0.14)">
       <defs>
        <path id="DejaVuSans-63" d="M 3122 3366 
L 3122 2828 
Q 2878 2963 2633 3030 
Q 2388 3097 2138 3097 
Q 1578 3097 1268 2742 
Q 959 2388 959 1747 
Q 959 1106 1268 751 
Q 1578 397 2138 397 
Q 2388 397 2633 464 
Q 2878 531 3122 666 
L 3122 134 
Q 2881 22 2623 -34 
Q 2366 -91 2075 -91 
Q 1284 -91 818 406 
Q 353 903 353 1747 
Q 353 2603 823 3093 
Q 1294 3584 2113 3584 
Q 2378 3584 2631 3529 
Q 2884 3475 3122 3366 
z
" transform="scale(0.015625)"/>
        <path id="DejaVuSans-70" d="M 1159 525 
L 1159 -1331 
L 581 -1331 
L 581 3500 
L 1159 3500 
L 1159 2969 
Q 1341 3281 1617 3432 
Q 1894 3584 2278 3584 
Q 2916 3584 3314 3078 
Q 3713 2572 3713 1747 
Q 3713 922 3314 415 
Q 2916 -91 2278 -91 
Q 1894 -91 1617 61 
Q 1341 213 1159 525 
z
M 3116 1747 
Q 3116 2381 2855 2742 
Q 2594 3103 2138 3103 
Q 1681 3103 1420 2742 
Q 1159 2381 1159 1747 
Q 1159 1113 1420 752 
Q 1681 391 2138 391 
Q 2594 391 2855 752 
Q 3116 1113 3116 1747 
z
" transform="scale(0.015625)"/>
        <path id="DejaVuSans-75" d="M 544 1381 
L 544 3500 
L 1119 3500 
L 1119 1403 
Q 1119 906 1312 657 
Q 1506 409 1894 409 
Q 2359 409 2629 706 
Q 2900 1003 2900 1516 
L 2900 3500 
L 3475 3500 
L 3475 0 
L 2900 0 
L 2900 538 
Q 2691 219 2414 64 
Q 2138 -91 1772 -91 
Q 1169 -91 856 284 
Q 544 659 544 1381 
z
M 1991 3584 
L 1991 3584 
z
" transform="scale(0.015625)"/>
       </defs>
       <use xlink:href="#DejaVuSans-63"/>
       <use xlink:href="#DejaVuSans-70" x="54.980469"/>
       <use xlink:href="#DejaVuSans-75" x="118.457031"/>
      </g>
     </g>
    </g>
    <g id="xtick_2">
     <g id="text_2">
      <!-- gpu -->
      <g style="fill: #262626" transform="translate(304.195937 271.997813) scale(0.14 -0.14)">
       <defs>
        <path id="DejaVuSans-67" d="M 2906 1791 
Q 2906 2416 2648 2759 
Q 2391 3103 1925 3103 
Q 1463 3103 1205 2759 
Q 947 2416 947 1791 
Q 947 1169 1205 825 
Q 1463 481 1925 481 
Q 2391 481 2648 825 
Q 2906 1169 2906 1791 
z
M 3481 434 
Q 3481 -459 3084 -895 
Q 2688 -1331 1869 -1331 
Q 1566 -1331 1297 -1286 
Q 1028 -1241 775 -1147 
L 775 -588 
Q 1028 -725 1275 -790 
Q 1522 -856 1778 -856 
Q 2344 -856 2625 -561 
Q 2906 -266 2906 331 
L 2906 616 
Q 2728 306 2450 153 
Q 2172 0 1784 0 
Q 1141 0 747 490 
Q 353 981 353 1791 
Q 353 2603 747 3093 
Q 1141 3584 1784 3584 
Q 2172 3584 2450 3431 
Q 2728 3278 2906 2969 
L 2906 3500 
L 3481 3500 
L 3481 434 
z
" transform="scale(0.015625)"/>
       </defs>
       <use xlink:href="#DejaVuSans-67"/>
       <use xlink:href="#DejaVuSans-70" x="63.476562"/>
       <use xlink:href="#DejaVuSans-75" x="126.953125"/>
      </g>
     </g>
    </g>
   </g>
   <g id="matplotlib.axis_2"/>
   <g id="patch_3">
    <path d="M 114.48 251.86 
L 114.48 251.86 
L 114.48 251.86 
L 114.48 251.86 
z
" clip-path="url(#pf00f89a45b)" style="fill: #3274a1; stroke: #3d3d3d; stroke-width: 1.8; stroke-linejoin: miter"/>
   </g>
   <g id="patch_4">
    <path d="M 114.48 251.86 
L 114.48 251.86 
L 114.48 251.86 
L 114.48 251.86 
z
" clip-path="url(#pf00f89a45b)" style="fill: #e1812c; stroke: #3d3d3d; stroke-width: 1.8; stroke-linejoin: miter"/>
   </g>
   <g id="patch_5">
    <path d="M 114.48 251.86 
L 114.48 251.86 
L 114.48 251.86 
L 114.48 251.86 
z
" clip-path="url(#pf00f89a45b)" style="fill: #3a923a; stroke: #3d3d3d; stroke-width: 1.8; stroke-linejoin: miter"/>
   </g>
   <g id="patch_6">
    <path d="M 114.48 251.86 
L 114.48 251.86 
L 114.48 251.86 
L 114.48 251.86 
z
" clip-path="url(#pf00f89a45b)" style="fill: #c03d3e; stroke: #3d3d3d; stroke-width: 1.8; stroke-linejoin: miter"/>
   </g>
   <g id="patch_7">
    <path d="M 33.264 60.918629 
L 73.872 60.918629 
L 73.872 60.811838 
L 33.264 60.811838 
L 33.264 60.918629 
z
" clip-path="url(#pf00f89a45b)" style="fill: #3274a1; stroke: #3d3d3d; stroke-width: 1.8; stroke-linejoin: miter"/>
   </g>
   <g id="line2d_1">
    <path d="M 53.568 60.918629 
L 53.568 60.918629 
" clip-path="url(#pf00f89a45b)" style="fill: none; stroke: #3d3d3d; stroke-width: 1.8"/>
   </g>
   <g id="line2d_2">
    <path d="M 53.568 60.811838 
L 53.568 54.938362 
" clip-path="url(#pf00f89a45b)" style="fill: none; stroke: #3d3d3d; stroke-width: 1.8"/>
   </g>
   <g id="line2d_3">
    <path d="M 43.416 60.918629 
L 63.72 60.918629 
" clip-path="url(#pf00f89a45b)" style="fill: none; stroke: #3d3d3d; stroke-width: 1.8; stroke-linecap: round"/>
   </g>
   <g id="line2d_4">
    <path d="M 43.416 54.938362 
L 63.72 54.938362 
" clip-path="url(#pf00f89a45b)" style="fill: none; stroke: #3d3d3d; stroke-width: 1.8; stroke-linecap: round"/>
   </g>
   <g id="line2d_5">
    <defs>
     <path id="m86c4244bb5" d="M 0 3 
C 0.795609 3 1.55874 2.683901 2.12132 2.12132 
C 2.683901 1.55874 3 0.795609 3 0 
C 3 -0.795609 2.683901 -1.55874 2.12132 -2.12132 
C 1.55874 -2.683901 0.795609 -3 0 -3 
C -0.795609 -3 -1.55874 -2.683901 -2.12132 -2.12132 
C -2.683901 -1.55874 -3 -0.795609 -3 0 
C -3 0.795609 -2.683901 1.55874 -2.12132 2.12132 
C -1.55874 2.683901 -0.795609 3 0 3 
z
" style="stroke: #3d3d3d"/>
    </defs>
    <g clip-path="url(#pf00f89a45b)">
     <use xlink:href="#m86c4244bb5" x="53.568" y="61.025419" style="fill-opacity: 0; stroke: #3d3d3d"/>
     <use xlink:href="#m86c4244bb5" x="53.568" y="61.025419" style="fill-opacity: 0; stroke: #3d3d3d"/>
     <use xlink:href="#m86c4244bb5" x="53.568" y="54.61799" style="fill-opacity: 0; stroke: #3d3d3d"/>
     <use xlink:href="#m86c4244bb5" x="53.568" y="53.977248" style="fill-opacity: 0; stroke: #3d3d3d"/>
    </g>
   </g>
   <g id="patch_8">
    <path d="M 236.304 60.811838 
L 276.912 60.811838 
L 276.912 44.045733 
L 236.304 44.045733 
L 236.304 60.811838 
z
" clip-path="url(#pf00f89a45b)" style="fill: #3274a1; stroke: #3d3d3d; stroke-width: 1.8; stroke-linejoin: miter"/>
   </g>
   <g id="line2d_6">
    <path d="M 256.608 60.811838 
L 256.608 60.811838 
" clip-path="url(#pf00f89a45b)" style="fill: none; stroke: #3d3d3d; stroke-width: 1.8"/>
   </g>
   <g id="line2d_7">
    <path d="M 256.608 44.045733 
L 256.608 36.67719 
" clip-path="url(#pf00f89a45b)" style="fill: none; stroke: #3d3d3d; stroke-width: 1.8"/>
   </g>
   <g id="line2d_8">
    <path d="M 246.456 60.811838 
L 266.76 60.811838 
" clip-path="url(#pf00f89a45b)" style="fill: none; stroke: #3d3d3d; stroke-width: 1.8; stroke-linecap: round"/>
   </g>
   <g id="line2d_9">
    <path d="M 246.456 36.67719 
L 266.76 36.67719 
" clip-path="url(#pf00f89a45b)" style="fill: none; stroke: #3d3d3d; stroke-width: 1.8; stroke-linecap: round"/>
   </g>
   <g id="line2d_10">
    <g clip-path="url(#pf00f89a45b)">
     <use xlink:href="#m86c4244bb5" x="256.608" y="60.918629" style="fill-opacity: 0; stroke: #3d3d3d"/>
     <use xlink:href="#m86c4244bb5" x="256.608" y="36.5704" style="fill-opacity: 0; stroke: #3d3d3d"/>
     <use xlink:href="#m86c4244bb5" x="256.608" y="35.929657" style="fill-opacity: 0; stroke: #3d3d3d"/>
    </g>
   </g>
   <g id="patch_9">
    <path d="M 73.872 60.918629 
L 114.48 60.918629 
L 114.48 60.811838 
L 73.872 60.811838 
L 73.872 60.918629 
z
" clip-path="url(#pf00f89a45b)" style="fill: #e1812c; stroke: #3d3d3d; stroke-width: 1.8; stroke-linejoin: miter"/>
   </g>
   <g id="line2d_11">
    <path d="M 94.176 60.918629 
L 94.176 60.918629 
" clip-path="url(#pf00f89a45b)" style="fill: none; stroke: #3d3d3d; stroke-width: 1.8"/>
   </g>
   <g id="line2d_12">
    <path d="M 94.176 60.811838 
L 94.176 60.705048 
" clip-path="url(#pf00f89a45b)" style="fill: none; stroke: #3d3d3d; stroke-width: 1.8"/>
   </g>
   <g id="line2d_13">
    <path d="M 84.024 60.918629 
L 104.328 60.918629 
" clip-path="url(#pf00f89a45b)" style="fill: none; stroke: #3d3d3d; stroke-width: 1.8; stroke-linecap: round"/>
   </g>
   <g id="line2d_14">
    <path d="M 84.024 60.705048 
L 104.328 60.705048 
" clip-path="url(#pf00f89a45b)" style="fill: none; stroke: #3d3d3d; stroke-width: 1.8; stroke-linecap: round"/>
   </g>
   <g id="line2d_15">
    <g clip-path="url(#pf00f89a45b)">
     <use xlink:href="#m86c4244bb5" x="94.176" y="61.025419" style="fill-opacity: 0; stroke: #3d3d3d"/>
     <use xlink:href="#m86c4244bb5" x="94.176" y="61.025419" style="fill-opacity: 0; stroke: #3d3d3d"/>
    </g>
   </g>
   <g id="patch_10">
    <path d="M 276.912 60.811838 
L 317.52 60.811838 
L 317.52 42.790945 
L 276.912 42.790945 
L 276.912 60.811838 
z
" clip-path="url(#pf00f89a45b)" style="fill: #e1812c; stroke: #3d3d3d; stroke-width: 1.8; stroke-linejoin: miter"/>
   </g>
   <g id="line2d_16">
    <path d="M 297.216 60.811838 
L 297.216 60.811838 
" clip-path="url(#pf00f89a45b)" style="fill: none; stroke: #3d3d3d; stroke-width: 1.8"/>
   </g>
   <g id="line2d_17">
    <path d="M 297.216 42.790945 
L 297.216 41.803133 
" clip-path="url(#pf00f89a45b)" style="fill: none; stroke: #3d3d3d; stroke-width: 1.8"/>
   </g>
   <g id="line2d_18">
    <path d="M 287.064 60.811838 
L 307.368 60.811838 
" clip-path="url(#pf00f89a45b)" style="fill: none; stroke: #3d3d3d; stroke-width: 1.8; stroke-linecap: round"/>
   </g>
   <g id="line2d_19">
    <path d="M 287.064 41.803133 
L 307.368 41.803133 
" clip-path="url(#pf00f89a45b)" style="fill: none; stroke: #3d3d3d; stroke-width: 1.8; stroke-linecap: round"/>
   </g>
   <g id="line2d_20">
    <g clip-path="url(#pf00f89a45b)">
     <use xlink:href="#m86c4244bb5" x="297.216" y="60.918629" style="fill-opacity: 0; stroke: #3d3d3d"/>
     <use xlink:href="#m86c4244bb5" x="297.216" y="41.0556" style="fill-opacity: 0; stroke: #3d3d3d"/>
     <use xlink:href="#m86c4244bb5" x="297.216" y="41.482762" style="fill-opacity: 0; stroke: #3d3d3d"/>
    </g>
   </g>
   <g id="patch_11">
    <path d="M 114.48 60.918629 
L 155.088 60.918629 
L 155.088 60.811838 
L 114.48 60.811838 
L 114.48 60.918629 
z
" clip-path="url(#pf00f89a45b)" style="fill: #3a923a; stroke: #3d3d3d; stroke-width: 1.8; stroke-linejoin: miter"/>
   </g>
   <g id="line2d_21">
    <path d="M 134.784 60.918629 
L 134.784 61.025419 
" clip-path="url(#pf00f89a45b)" style="fill: none; stroke: #3d3d3d; stroke-width: 1.8"/>
   </g>
   <g id="line2d_22">
    <path d="M 134.784 60.811838 
L 134.784 60.705048 
" clip-path="url(#pf00f89a45b)" style="fill: none; stroke: #3d3d3d; stroke-width: 1.8"/>
   </g>
   <g id="line2d_23">
    <path d="M 124.632 61.025419 
L 144.936 61.025419 
" clip-path="url(#pf00f89a45b)" style="fill: none; stroke: #3d3d3d; stroke-width: 1.8; stroke-linecap: round"/>
   </g>
   <g id="line2d_24">
    <path d="M 124.632 60.705048 
L 144.936 60.705048 
" clip-path="url(#pf00f89a45b)" style="fill: none; stroke: #3d3d3d; stroke-width: 1.8; stroke-linecap: round"/>
   </g>
   <g id="line2d_25">
    <g clip-path="url(#pf00f89a45b)">
     <use xlink:href="#m86c4244bb5" x="134.784" y="60.384676" style="fill-opacity: 0; stroke: #3d3d3d"/>
    </g>
   </g>
   <g id="patch_12">
    <path d="M 317.52 60.811838 
L 358.128 60.811838 
L 358.128 43.671967 
L 317.52 43.671967 
L 317.52 60.811838 
z
" clip-path="url(#pf00f89a45b)" style="fill: #3a923a; stroke: #3d3d3d; stroke-width: 1.8; stroke-linejoin: miter"/>
   </g>
   <g id="line2d_26">
    <path d="M 337.824 60.811838 
L 337.824 60.811838 
" clip-path="url(#pf00f89a45b)" style="fill: none; stroke: #3d3d3d; stroke-width: 1.8"/>
   </g>
   <g id="line2d_27">
    <path d="M 337.824 43.671967 
L 337.824 41.909924 
" clip-path="url(#pf00f89a45b)" style="fill: none; stroke: #3d3d3d; stroke-width: 1.8"/>
   </g>
   <g id="line2d_28">
    <path d="M 327.672 60.811838 
L 347.976 60.811838 
" clip-path="url(#pf00f89a45b)" style="fill: none; stroke: #3d3d3d; stroke-width: 1.8; stroke-linecap: round"/>
   </g>
   <g id="line2d_29">
    <path d="M 327.672 41.909924 
L 347.976 41.909924 
" clip-path="url(#pf00f89a45b)" style="fill: none; stroke: #3d3d3d; stroke-width: 1.8; stroke-linecap: round"/>
   </g>
   <g id="line2d_30">
    <g clip-path="url(#pf00f89a45b)">
     <use xlink:href="#m86c4244bb5" x="337.824" y="60.918629" style="fill-opacity: 0; stroke: #3d3d3d"/>
     <use xlink:href="#m86c4244bb5" x="337.824" y="40.414857" style="fill-opacity: 0; stroke: #3d3d3d"/>
    </g>
   </g>
   <g id="patch_13">
    <path d="M 155.088 61.10246 
L 195.696 61.10246 
L 195.696 59.526452 
L 155.088 59.526452 
L 155.088 61.10246 
z
" clip-path="url(#pf00f89a45b)" style="fill: #c03d3e; stroke: #3d3d3d; stroke-width: 1.8; stroke-linejoin: miter"/>
   </g>
   <g id="line2d_31">
    <path d="M 175.392 61.10246 
L 175.392 61.105654 
" clip-path="url(#pf00f89a45b)" style="fill: none; stroke: #3d3d3d; stroke-width: 1.8"/>
   </g>
   <g id="line2d_32">
    <path d="M 175.392 59.526452 
L 175.392 58.89696 
" clip-path="url(#pf00f89a45b)" style="fill: none; stroke: #3d3d3d; stroke-width: 1.8"/>
   </g>
   <g id="line2d_33">
    <path d="M 165.24 61.105654 
L 185.544 61.105654 
" clip-path="url(#pf00f89a45b)" style="fill: none; stroke: #3d3d3d; stroke-width: 1.8; stroke-linecap: round"/>
   </g>
   <g id="line2d_34">
    <path d="M 165.24 58.89696 
L 185.544 58.89696 
" clip-path="url(#pf00f89a45b)" style="fill: none; stroke: #3d3d3d; stroke-width: 1.8; stroke-linecap: round"/>
   </g>
   <g id="line2d_35">
    <g clip-path="url(#pf00f89a45b)">
     <use xlink:href="#m86c4244bb5" x="175.392" y="61.107346" style="fill-opacity: 0; stroke: #3d3d3d"/>
     <use xlink:href="#m86c4244bb5" x="175.392" y="61.105936" style="fill-opacity: 0; stroke: #3d3d3d"/>
     <use xlink:href="#m86c4244bb5" x="175.392" y="58.761142" style="fill-opacity: 0; stroke: #3d3d3d"/>
     <use xlink:href="#m86c4244bb5" x="175.392" y="58.567743" style="fill-opacity: 0; stroke: #3d3d3d"/>
    </g>
   </g>
   <g id="patch_14">
    <path d="M 358.128 60.899526 
L 398.736 60.899526 
L 398.736 60.877404 
L 358.128 60.877404 
L 358.128 60.899526 
z
" clip-path="url(#pf00f89a45b)" style="fill: #c03d3e; stroke: #3d3d3d; stroke-width: 1.8; stroke-linejoin: miter"/>
   </g>
   <g id="line2d_36">
    <path d="M 378.432 60.899526 
L 378.432 60.911213 
" clip-path="url(#pf00f89a45b)" style="fill: none; stroke: #3d3d3d; stroke-width: 1.8"/>
   </g>
   <g id="line2d_37">
    <path d="M 378.432 60.877404 
L 378.432 58.93456 
" clip-path="url(#pf00f89a45b)" style="fill: none; stroke: #3d3d3d; stroke-width: 1.8"/>
   </g>
   <g id="line2d_38">
    <path d="M 368.28 60.911213 
L 388.584 60.911213 
" clip-path="url(#pf00f89a45b)" style="fill: none; stroke: #3d3d3d; stroke-width: 1.8; stroke-linecap: round"/>
   </g>
   <g id="line2d_39">
    <path d="M 368.28 58.93456 
L 388.584 58.93456 
" clip-path="url(#pf00f89a45b)" style="fill: none; stroke: #3d3d3d; stroke-width: 1.8; stroke-linecap: round"/>
   </g>
   <g id="line2d_40">
    <g clip-path="url(#pf00f89a45b)">
     <use xlink:href="#m86c4244bb5" x="378.432" y="60.913319" style="fill-opacity: 0; stroke: #3d3d3d"/>
     <use xlink:href="#m86c4244bb5" x="378.432" y="60.914146" style="fill-opacity: 0; stroke: #3d3d3d"/>
     <use xlink:href="#m86c4244bb5" x="378.432" y="58.004015" style="fill-opacity: 0; stroke: #3d3d3d"/>
     <use xlink:href="#m86c4244bb5" x="378.432" y="58.716272" style="fill-opacity: 0; stroke: #3d3d3d"/>
    </g>
   </g>
   <g id="line2d_41">
    <path d="M 33.264 60.918629 
L 73.872 60.918629 
" clip-path="url(#pf00f89a45b)" style="fill: none; stroke: #3d3d3d; stroke-width: 1.8"/>
   </g>
   <g id="line2d_42">
    <path d="M 236.304 60.705048 
L 276.912 60.705048 
" clip-path="url(#pf00f89a45b)" style="fill: none; stroke: #3d3d3d; stroke-width: 1.8"/>
   </g>
   <g id="line2d_43">
    <path d="M 73.872 60.811838 
L 114.48 60.811838 
" clip-path="url(#pf00f89a45b)" style="fill: none; stroke: #3d3d3d; stroke-width: 1.8"/>
   </g>
   <g id="line2d_44">
    <path d="M 276.912 44.793267 
L 317.52 44.793267 
" clip-path="url(#pf00f89a45b)" style="fill: none; stroke: #3d3d3d; stroke-width: 1.8"/>
   </g>
   <g id="line2d_45">
    <path d="M 114.48 60.811838 
L 155.088 60.811838 
" clip-path="url(#pf00f89a45b)" style="fill: none; stroke: #3d3d3d; stroke-width: 1.8"/>
   </g>
   <g id="line2d_46">
    <path d="M 317.52 44.633081 
L 358.128 44.633081 
" clip-path="url(#pf00f89a45b)" style="fill: none; stroke: #3d3d3d; stroke-width: 1.8"/>
   </g>
   <g id="line2d_47">
    <path d="M 155.088 61.10064 
L 195.696 61.10064 
" clip-path="url(#pf00f89a45b)" style="fill: none; stroke: #3d3d3d; stroke-width: 1.8"/>
   </g>
   <g id="line2d_48">
    <path d="M 358.128 60.893962 
L 398.736 60.893962 
" clip-path="url(#pf00f89a45b)" style="fill: none; stroke: #3d3d3d; stroke-width: 1.8"/>
   </g>
   <g id="patch_15">
    <path d="M 12.96 251.86 
L 12.96 27.6 
" style="fill: none; stroke: #cccccc; stroke-width: 1.25; stroke-linejoin: miter; stroke-linecap: square"/>
   </g>
   <g id="patch_16">
    <path d="M 419.04 251.86 
L 419.04 27.6 
" style="fill: none; stroke: #cccccc; stroke-width: 1.25; stroke-linejoin: miter; stroke-linecap: square"/>
   </g>
   <g id="patch_17">
    <path d="M 12.96 251.86 
L 419.04 251.86 
" style="fill: none; stroke: #cccccc; stroke-width: 1.25; stroke-linejoin: miter; stroke-linecap: square"/>
   </g>
   <g id="patch_18">
    <path d="M 12.96 27.6 
L 419.04 27.6 
" style="fill: none; stroke: #cccccc; stroke-width: 1.25; stroke-linejoin: miter; stroke-linecap: square"/>
   </g>
   <g id="text_3">
    <!-- Job "cganalysis" Times By Experiment -->
    <g style="fill: #262626" transform="translate(102.06 21.6) scale(0.12 -0.12)">
     <defs>
      <path id="DejaVuSans-4a" d="M 628 4666 
L 1259 4666 
L 1259 325 
Q 1259 -519 939 -900 
Q 619 -1281 -91 -1281 
L -331 -1281 
L -331 -750 
L -134 -750 
Q 284 -750 456 -515 
Q 628 -281 628 325 
L 628 4666 
z
" transform="scale(0.015625)"/>
      <path id="DejaVuSans-6f" d="M 1959 3097 
Q 1497 3097 1228 2736 
Q 959 2375 959 1747 
Q 959 1119 1226 758 
Q 1494 397 1959 397 
Q 2419 397 2687 759 
Q 2956 1122 2956 1747 
Q 2956 2369 2687 2733 
Q 2419 3097 1959 3097 
z
M 1959 3584 
Q 2709 3584 3137 3096 
Q 3566 2609 3566 1747 
Q 3566 888 3137 398 
Q 2709 -91 1959 -91 
Q 1206 -91 779 398 
Q 353 888 353 1747 
Q 353 2609 779 3096 
Q 1206 3584 1959 3584 
z
" transform="scale(0.015625)"/>
      <path id="DejaVuSans-62" d="M 3116 1747 
Q 3116 2381 2855 2742 
Q 2594 3103 2138 3103 
Q 1681 3103 1420 2742 
Q 1159 2381 1159 1747 
Q 1159 1113 1420 752 
Q 1681 391 2138 391 
Q 2594 391 2855 752 
Q 3116 1113 3116 1747 
z
M 1159 2969 
Q 1341 3281 1617 3432 
Q 1894 3584 2278 3584 
Q 2916 3584 3314 3078 
Q 3713 2572 3713 1747 
Q 3713 922 3314 415 
Q 2916 -91 2278 -91 
Q 1894 -91 1617 61 
Q 1341 213 1159 525 
L 1159 0 
L 581 0 
L 581 4863 
L 1159 4863 
L 1159 2969 
z
" transform="scale(0.015625)"/>
      <path id="DejaVuSans-20" transform="scale(0.015625)"/>
      <path id="DejaVuSans-22" d="M 1147 4666 
L 1147 2931 
L 616 2931 
L 616 4666 
L 1147 4666 
z
M 2328 4666 
L 2328 2931 
L 1797 2931 
L 1797 4666 
L 2328 4666 
z
" transform="scale(0.015625)"/>
      <path id="DejaVuSans-61" d="M 2194 1759 
Q 1497 1759 1228 1600 
Q 959 1441 959 1056 
Q 959 750 1161 570 
Q 1363 391 1709 391 
Q 2188 391 2477 730 
Q 2766 1069 2766 1631 
L 2766 1759 
L 2194 1759 
z
M 3341 1997 
L 3341 0 
L 2766 0 
L 2766 531 
Q 2569 213 2275 61 
Q 1981 -91 1556 -91 
Q 1019 -91 701 211 
Q 384 513 384 1019 
Q 384 1609 779 1909 
Q 1175 2209 1959 2209 
L 2766 2209 
L 2766 2266 
Q 2766 2663 2505 2880 
Q 2244 3097 1772 3097 
Q 1472 3097 1187 3025 
Q 903 2953 641 2809 
L 641 3341 
Q 956 3463 1253 3523 
Q 1550 3584 1831 3584 
Q 2591 3584 2966 3190 
Q 3341 2797 3341 1997 
z
" transform="scale(0.015625)"/>
      <path id="DejaVuSans-6e" d="M 3513 2113 
L 3513 0 
L 2938 0 
L 2938 2094 
Q 2938 2591 2744 2837 
Q 2550 3084 2163 3084 
Q 1697 3084 1428 2787 
Q 1159 2491 1159 1978 
L 1159 0 
L 581 0 
L 581 3500 
L 1159 3500 
L 1159 2956 
Q 1366 3272 1645 3428 
Q 1925 3584 2291 3584 
Q 2894 3584 3203 3211 
Q 3513 2838 3513 2113 
z
" transform="scale(0.015625)"/>
      <path id="DejaVuSans-6c" d="M 603 4863 
L 1178 4863 
L 1178 0 
L 603 0 
L 603 4863 
z
" transform="scale(0.015625)"/>
      <path id="DejaVuSans-79" d="M 2059 -325 
Q 1816 -950 1584 -1140 
Q 1353 -1331 966 -1331 
L 506 -1331 
L 506 -850 
L 844 -850 
Q 1081 -850 1212 -737 
Q 1344 -625 1503 -206 
L 1606 56 
L 191 3500 
L 800 3500 
L 1894 763 
L 2988 3500 
L 3597 3500 
L 2059 -325 
z
" transform="scale(0.015625)"/>
      <path id="DejaVuSans-73" d="M 2834 3397 
L 2834 2853 
Q 2591 2978 2328 3040 
Q 2066 3103 1784 3103 
Q 1356 3103 1142 2972 
Q 928 2841 928 2578 
Q 928 2378 1081 2264 
Q 1234 2150 1697 2047 
L 1894 2003 
Q 2506 1872 2764 1633 
Q 3022 1394 3022 966 
Q 3022 478 2636 193 
Q 2250 -91 1575 -91 
Q 1294 -91 989 -36 
Q 684 19 347 128 
L 347 722 
Q 666 556 975 473 
Q 1284 391 1588 391 
Q 1994 391 2212 530 
Q 2431 669 2431 922 
Q 2431 1156 2273 1281 
Q 2116 1406 1581 1522 
L 1381 1569 
Q 847 1681 609 1914 
Q 372 2147 372 2553 
Q 372 3047 722 3315 
Q 1072 3584 1716 3584 
Q 2034 3584 2315 3537 
Q 2597 3491 2834 3397 
z
" transform="scale(0.015625)"/>
      <path id="DejaVuSans-69" d="M 603 3500 
L 1178 3500 
L 1178 0 
L 603 0 
L 603 3500 
z
M 603 4863 
L 1178 4863 
L 1178 4134 
L 603 4134 
L 603 4863 
z
" transform="scale(0.015625)"/>
      <path id="DejaVuSans-54" d="M -19 4666 
L 3928 4666 
L 3928 4134 
L 2272 4134 
L 2272 0 
L 1638 0 
L 1638 4134 
L -19 4134 
L -19 4666 
z
" transform="scale(0.015625)"/>
      <path id="DejaVuSans-6d" d="M 3328 2828 
Q 3544 3216 3844 3400 
Q 4144 3584 4550 3584 
Q 5097 3584 5394 3201 
Q 5691 2819 5691 2113 
L 5691 0 
L 5113 0 
L 5113 2094 
Q 5113 2597 4934 2840 
Q 4756 3084 4391 3084 
Q 3944 3084 3684 2787 
Q 3425 2491 3425 1978 
L 3425 0 
L 2847 0 
L 2847 2094 
Q 2847 2600 2669 2842 
Q 2491 3084 2119 3084 
Q 1678 3084 1418 2786 
Q 1159 2488 1159 1978 
L 1159 0 
L 581 0 
L 581 3500 
L 1159 3500 
L 1159 2956 
Q 1356 3278 1631 3431 
Q 1906 3584 2284 3584 
Q 2666 3584 2933 3390 
Q 3200 3197 3328 2828 
z
" transform="scale(0.015625)"/>
      <path id="DejaVuSans-65" d="M 3597 1894 
L 3597 1613 
L 953 1613 
Q 991 1019 1311 708 
Q 1631 397 2203 397 
Q 2534 397 2845 478 
Q 3156 559 3463 722 
L 3463 178 
Q 3153 47 2828 -22 
Q 2503 -91 2169 -91 
Q 1331 -91 842 396 
Q 353 884 353 1716 
Q 353 2575 817 3079 
Q 1281 3584 2069 3584 
Q 2775 3584 3186 3129 
Q 3597 2675 3597 1894 
z
M 3022 2063 
Q 3016 2534 2758 2815 
Q 2500 3097 2075 3097 
Q 1594 3097 1305 2825 
Q 1016 2553 972 2059 
L 3022 2063 
z
" transform="scale(0.015625)"/>
      <path id="DejaVuSans-42" d="M 1259 2228 
L 1259 519 
L 2272 519 
Q 2781 519 3026 730 
Q 3272 941 3272 1375 
Q 3272 1813 3026 2020 
Q 2781 2228 2272 2228 
L 1259 2228 
z
M 1259 4147 
L 1259 2741 
L 2194 2741 
Q 2656 2741 2882 2914 
Q 3109 3088 3109 3444 
Q 3109 3797 2882 3972 
Q 2656 4147 2194 4147 
L 1259 4147 
z
M 628 4666 
L 2241 4666 
Q 2963 4666 3353 4366 
Q 3744 4066 3744 3513 
Q 3744 3084 3544 2831 
Q 3344 2578 2956 2516 
Q 3422 2416 3680 2098 
Q 3938 1781 3938 1306 
Q 3938 681 3513 340 
Q 3088 0 2303 0 
L 628 0 
L 628 4666 
z
" transform="scale(0.015625)"/>
      <path id="DejaVuSans-45" d="M 628 4666 
L 3578 4666 
L 3578 4134 
L 1259 4134 
L 1259 2753 
L 3481 2753 
L 3481 2222 
L 1259 2222 
L 1259 531 
L 3634 531 
L 3634 0 
L 628 0 
L 628 4666 
z
" transform="scale(0.015625)"/>
      <path id="DejaVuSans-78" d="M 3513 3500 
L 2247 1797 
L 3578 0 
L 2900 0 
L 1881 1375 
L 863 0 
L 184 0 
L 1544 1831 
L 300 3500 
L 978 3500 
L 1906 2253 
L 2834 3500 
L 3513 3500 
z
" transform="scale(0.015625)"/>
      <path id="DejaVuSans-72" d="M 2631 2963 
Q 2534 3019 2420 3045 
Q 2306 3072 2169 3072 
Q 1681 3072 1420 2755 
Q 1159 2438 1159 1844 
L 1159 0 
L 581 0 
L 581 3500 
L 1159 3500 
L 1159 2956 
Q 1341 3275 1631 3429 
Q 1922 3584 2338 3584 
Q 2397 3584 2469 3576 
Q 2541 3569 2628 3553 
L 2631 2963 
z
" transform="scale(0.015625)"/>
      <path id="DejaVuSans-74" d="M 1172 4494 
L 1172 3500 
L 2356 3500 
L 2356 3053 
L 1172 3053 
L 1172 1153 
Q 1172 725 1289 603 
Q 1406 481 1766 481 
L 2356 481 
L 2356 0 
L 1766 0 
Q 1100 0 847 248 
Q 594 497 594 1153 
L 594 3053 
L 172 3053 
L 172 3500 
L 594 3500 
L 594 4494 
L 1172 4494 
z
" transform="scale(0.015625)"/>
     </defs>
     <use xlink:href="#DejaVuSans-4a"/>
     <use xlink:href="#DejaVuSans-6f" x="29.492188"/>
     <use xlink:href="#DejaVuSans-62" x="90.673828"/>
     <use xlink:href="#DejaVuSans-20" x="154.150391"/>
     <use xlink:href="#DejaVuSans-22" x="185.9375"/>
     <use xlink:href="#DejaVuSans-63" x="231.933594"/>
     <use xlink:href="#DejaVuSans-67" x="286.914062"/>
     <use xlink:href="#DejaVuSans-61" x="350.390625"/>
     <use xlink:href="#DejaVuSans-6e" x="411.669922"/>
     <use xlink:href="#DejaVuSans-61" x="475.048828"/>
     <use xlink:href="#DejaVuSans-6c" x="536.328125"/>
     <use xlink:href="#DejaVuSans-79" x="564.111328"/>
     <use xlink:href="#DejaVuSans-73" x="623.291016"/>
     <use xlink:href="#DejaVuSans-69" x="675.390625"/>
     <use xlink:href="#DejaVuSans-73" x="703.173828"/>
     <use xlink:href="#DejaVuSans-22" x="755.273438"/>
     <use xlink:href="#DejaVuSans-20" x="801.269531"/>
     <use xlink:href="#DejaVuSans-54" x="833.056641"/>
     <use xlink:href="#DejaVuSans-69" x="891.015625"/>
     <use xlink:href="#DejaVuSans-6d" x="918.798828"/>
     <use xlink:href="#DejaVuSans-65" x="1016.210938"/>
     <use xlink:href="#DejaVuSans-73" x="1077.734375"/>
     <use xlink:href="#DejaVuSans-20" x="1129.833984"/>
     <use xlink:href="#DejaVuSans-42" x="1161.621094"/>
     <use xlink:href="#DejaVuSans-79" x="1230.224609"/>
     <use xlink:href="#DejaVuSans-20" x="1289.404297"/>
     <use xlink:href="#DejaVuSans-45" x="1321.191406"/>
     <use xlink:href="#DejaVuSans-78" x="1384.375"/>
     <use xlink:href="#DejaVuSans-70" x="1443.554688"/>
     <use xlink:href="#DejaVuSans-65" x="1507.03125"/>
     <use xlink:href="#DejaVuSans-72" x="1568.554688"/>
     <use xlink:href="#DejaVuSans-69" x="1609.667969"/>
     <use xlink:href="#DejaVuSans-6d" x="1637.451172"/>
     <use xlink:href="#DejaVuSans-65" x="1734.863281"/>
     <use xlink:href="#DejaVuSans-6e" x="1796.386719"/>
     <use xlink:href="#DejaVuSans-74" x="1859.765625"/>
    </g>
   </g>
   <g id="legend_1">
    <g id="patch_19">
     <path d="M 20.66 246.36 
L 191.086094 246.36 
Q 193.286094 246.36 193.286094 244.16 
L 193.286094 180.67625 
Q 193.286094 178.47625 191.086094 178.47625 
L 20.66 178.47625 
Q 18.46 178.47625 18.46 180.67625 
L 18.46 244.16 
Q 18.46 246.36 20.66 246.36 
z
" style="fill: #ffffff; opacity: 0.8; stroke: #cccccc; stroke-linejoin: miter"/>
    </g>
    <g id="patch_20">
     <path d="M 22.86 191.234531 
L 44.86 191.234531 
L 44.86 183.534531 
L 22.86 183.534531 
z
" style="fill: #3274a1; stroke: #3d3d3d; stroke-width: 1.8; stroke-linejoin: miter"/>
    </g>
    <g id="text_4">
     <!-- mummi -->
     <g style="fill: #262626" transform="translate(53.66 191.234531) scale(0.11 -0.11)">
      <use xlink:href="#DejaVuSans-6d"/>
      <use xlink:href="#DejaVuSans-75" x="97.412109"/>
      <use xlink:href="#DejaVuSans-6d" x="160.791016"/>
      <use xlink:href="#DejaVuSans-6d" x="258.203125"/>
      <use xlink:href="#DejaVuSans-69" x="355.615234"/>
     </g>
    </g>
    <g id="patch_21">
     <path d="M 22.86 207.380469 
L 44.86 207.380469 
L 44.86 199.680469 
L 22.86 199.680469 
z
" style="fill: #e1812c; stroke: #3d3d3d; stroke-width: 1.8; stroke-linejoin: miter"/>
    </g>
    <g id="text_5">
     <!-- state machine -->
     <g style="fill: #262626" transform="translate(53.66 207.380469) scale(0.11 -0.11)">
      <defs>
       <path id="DejaVuSans-68" d="M 3513 2113 
L 3513 0 
L 2938 0 
L 2938 2094 
Q 2938 2591 2744 2837 
Q 2550 3084 2163 3084 
Q 1697 3084 1428 2787 
Q 1159 2491 1159 1978 
L 1159 0 
L 581 0 
L 581 4863 
L 1159 4863 
L 1159 2956 
Q 1366 3272 1645 3428 
Q 1925 3584 2291 3584 
Q 2894 3584 3203 3211 
Q 3513 2838 3513 2113 
z
" transform="scale(0.015625)"/>
      </defs>
      <use xlink:href="#DejaVuSans-73"/>
      <use xlink:href="#DejaVuSans-74" x="52.099609"/>
      <use xlink:href="#DejaVuSans-61" x="91.308594"/>
      <use xlink:href="#DejaVuSans-74" x="152.587891"/>
      <use xlink:href="#DejaVuSans-65" x="191.796875"/>
      <use xlink:href="#DejaVuSans-20" x="253.320312"/>
      <use xlink:href="#DejaVuSans-6d" x="285.107422"/>
      <use xlink:href="#DejaVuSans-61" x="382.519531"/>
      <use xlink:href="#DejaVuSans-63" x="443.798828"/>
      <use xlink:href="#DejaVuSans-68" x="498.779297"/>
      <use xlink:href="#DejaVuSans-69" x="562.158203"/>
      <use xlink:href="#DejaVuSans-6e" x="589.941406"/>
      <use xlink:href="#DejaVuSans-65" x="653.320312"/>
     </g>
    </g>
    <g id="patch_22">
     <path d="M 22.86 223.526406 
L 44.86 223.526406 
L 44.86 215.826406 
L 22.86 215.826406 
z
" style="fill: #3a923a; stroke: #3d3d3d; stroke-width: 1.8; stroke-linejoin: miter"/>
    </g>
    <g id="text_6">
     <!-- state machine autoscale -->
     <g style="fill: #262626" transform="translate(53.66 223.526406) scale(0.11 -0.11)">
      <use xlink:href="#DejaVuSans-73"/>
      <use xlink:href="#DejaVuSans-74" x="52.099609"/>
      <use xlink:href="#DejaVuSans-61" x="91.308594"/>
      <use xlink:href="#DejaVuSans-74" x="152.587891"/>
      <use xlink:href="#DejaVuSans-65" x="191.796875"/>
      <use xlink:href="#DejaVuSans-20" x="253.320312"/>
      <use xlink:href="#DejaVuSans-6d" x="285.107422"/>
      <use xlink:href="#DejaVuSans-61" x="382.519531"/>
      <use xlink:href="#DejaVuSans-63" x="443.798828"/>
      <use xlink:href="#DejaVuSans-68" x="498.779297"/>
      <use xlink:href="#DejaVuSans-69" x="562.158203"/>
      <use xlink:href="#DejaVuSans-6e" x="589.941406"/>
      <use xlink:href="#DejaVuSans-65" x="653.320312"/>
      <use xlink:href="#DejaVuSans-20" x="714.84375"/>
      <use xlink:href="#DejaVuSans-61" x="746.630859"/>
      <use xlink:href="#DejaVuSans-75" x="807.910156"/>
      <use xlink:href="#DejaVuSans-74" x="871.289062"/>
      <use xlink:href="#DejaVuSans-6f" x="910.498047"/>
      <use xlink:href="#DejaVuSans-73" x="971.679688"/>
      <use xlink:href="#DejaVuSans-63" x="1023.779297"/>
      <use xlink:href="#DejaVuSans-61" x="1078.759766"/>
      <use xlink:href="#DejaVuSans-6c" x="1140.039062"/>
      <use xlink:href="#DejaVuSans-65" x="1167.822266"/>
     </g>
    </g>
    <g id="patch_23">
     <path d="M 22.86 239.672344 
L 44.86 239.672344 
L 44.86 231.972344 
L 22.86 231.972344 
z
" style="fill: #c03d3e; stroke: #3d3d3d; stroke-width: 1.8; stroke-linejoin: miter"/>
    </g>
    <g id="text_7">
     <!-- state machine flux -->
     <g style="fill: #262626" transform="translate(53.66 239.672344) scale(0.11 -0.11)">
      <defs>
       <path id="DejaVuSans-66" d="M 2375 4863 
L 2375 4384 
L 1825 4384 
Q 1516 4384 1395 4259 
Q 1275 4134 1275 3809 
L 1275 3500 
L 2222 3500 
L 2222 3053 
L 1275 3053 
L 1275 0 
L 697 0 
L 697 3053 
L 147 3053 
L 147 3500 
L 697 3500 
L 697 3744 
Q 697 4328 969 4595 
Q 1241 4863 1831 4863 
L 2375 4863 
z
" transform="scale(0.015625)"/>
      </defs>
      <use xlink:href="#DejaVuSans-73"/>
      <use xlink:href="#DejaVuSans-74" x="52.099609"/>
      <use xlink:href="#DejaVuSans-61" x="91.308594"/>
      <use xlink:href="#DejaVuSans-74" x="152.587891"/>
      <use xlink:href="#DejaVuSans-65" x="191.796875"/>
      <use xlink:href="#DejaVuSans-20" x="253.320312"/>
      <use xlink:href="#DejaVuSans-6d" x="285.107422"/>
      <use xlink:href="#DejaVuSans-61" x="382.519531"/>
      <use xlink:href="#DejaVuSans-63" x="443.798828"/>
      <use xlink:href="#DejaVuSans-68" x="498.779297"/>
      <use xlink:href="#DejaVuSans-69" x="562.158203"/>
      <use xlink:href="#DejaVuSans-6e" x="589.941406"/>
      <use xlink:href="#DejaVuSans-65" x="653.320312"/>
      <use xlink:href="#DejaVuSans-20" x="714.84375"/>
      <use xlink:href="#DejaVuSans-66" x="746.630859"/>
      <use xlink:href="#DejaVuSans-6c" x="781.835938"/>
      <use xlink:href="#DejaVuSans-75" x="809.619141"/>
      <use xlink:href="#DejaVuSans-78" x="872.998047"/>
     </g>
    </g>
   </g>
  </g>
 </g>
 <defs>
  <clipPath id="pf00f89a45b">
   <rect x="12.96" y="27.6" width="406.08" height="224.26"/>
  </clipPath>
 </defs>
</svg>
